<?xml version="1.0" standalone="no"?><!DOCTYPE svg PUBLIC "-//W3C//DTD SVG 1.1//EN" "http://www.w3.org/Graphics/SVG/1.1/DTD/svg11.dtd"><svg t="1497408817109" class="icon" style="" viewBox="0 0 1024 1024" version="1.1" xmlns="http://www.w3.org/2000/svg" p-id="1015" xmlns:xlink="http://www.w3.org/1999/xlink" width="200" height="200"><defs><style type="text/css"></style></defs><path d="M25.673143 539.355429C25.088 542.939429 25.965714 546.377143 27.501714 549.376 27.574857 550.692571 27.721143 551.789714 27.721143 552.228571l1.389714-0.073143C31.597714 555.300571 35.108571 557.714286 39.497143 558.372571c0.877714 0.146286 1.755429 0.219429 2.633143 0.219429 2.852571 0 5.412571-0.950857 7.753143-2.194286C49.737143 557.202286 49.444571 557.787429 49.298286 558.665143c-8.118857 66.194286 33.792 159.378286 66.048 189.952 22.966857 21.723429 77.165714 36.278857 134.802286 36.278857 0 0 0 0 0 0 55.734857 0 100.644571-13.312 123.245714-36.571429C401.627429 719.140571 420.571429 683.739429 431.689143 658.139429l42.715429-56.32c5.558857-7.314286 4.096-17.700571-3.145143-23.259429C466.285714 574.683429 459.849143 574.464 454.509714 576.877714c0.658286-9.728 0.365714-20.114286-1.536-30.281143 10.971429 1.462857 28.086857 2.998857 54.418286 3.584 4.022857 0.073143 7.899429 0.073143 11.629714 0.073143 23.698286 0 40.740571-1.609143 51.931429-3.291429C569.051429 557.056 568.832 567.222857 569.490286 576.877714 564.150857 574.464 557.714286 574.683429 552.740571 578.56c-7.314286 5.558857-8.704 16.018286-3.145143 23.259429l42.715429 56.32C603.574857 683.885714 622.372571 719.140571 650.605714 748.251429c22.528 23.259429 67.510857 36.571429 123.245714 36.571429 57.636571 0 111.762286-14.555429 134.875429-36.278857 32.182857-30.573714 74.166857-123.684571 65.974857-189.878857-0.073143-0.877714-0.365714-1.536-0.512-2.340571 2.340571 1.243429 4.973714 2.194286 7.753143 2.194286 0.877714 0 1.682286-0.073143 2.56-0.219429 4.388571-0.658286 7.899429-2.998857 10.459429-6.144l1.389714 0.073143c0-0.438857 0.073143-1.536 0.219429-2.925714 1.536-3.072 2.413714-6.436571 1.828571-10.020571-0.292571-1.536-0.658286-3.218286-1.024-4.900571 3.145143-62.537143 6.656-267.410286-78.774857-294.619429-9.142857-2.925714-24.064 3.437714-40.740571 13.824-4.973714-1.024-10.313143 0-14.336 3.657143l-75.044571 67.072c-5.705143 5.12-6.802286 13.165714-3.510857 19.675429 10.532571 14.262857 20.114286 12.653714 20.114286 12.653714 1.536 0 3.145143-0.146286 4.681143-0.438857 20.845714-3.730286 40.009143-29.842286 48.274286-49.590857l27.574857-24.649143c4.900571-4.461714 6.509714-11.117714 4.681143-17.042286 11.190857-6.948571 19.529143-10.605714 23.113143-9.362286 58.441143 18.578286 69.485714 153.6 68.461714 243.2-17.554286-26.843429-50.176-52.882286-104.96-54.272-9.362286-0.219429-19.602286-0.585143-30.427429-0.950857C706.852571 439.076571 589.897143 440.246857 574.025143 501.76 572.196571 508.854857 575.341714 515.876571 581.12 519.606857c-1.901714 3.072-3.657143 6.290286-4.973714 9.508571-10.093714 1.974857-32.109714 5.12-68.461714 4.315429-33.792-0.731429-51.638857-3.072-59.977143-4.608-1.389714-3.072-2.925714-6.070857-4.681143-9.069714C449.024 516.096 452.388571 508.928 450.486857 501.76 434.614857 440.246857 317.44 439.003429 177.444571 443.684571 166.619429 444.050286 156.379429 444.342857 147.017143 444.635429 92.233143 445.952 59.684571 472.064 42.130286 498.834286 41.033143 409.234286 52.077714 274.285714 110.518857 255.634286c3.657143-1.170286 11.995429 2.413714 23.186286 9.362286C131.949714 270.994286 133.485714 277.577143 138.386286 282.038857l27.574857 24.649143C174.226286 326.436571 193.389714 352.548571 214.308571 356.278857c1.536 0.292571 3.145143 0.438857 4.681143 0.438857 0 0 9.654857 1.682286 20.114286-12.653714 3.218286-6.509714 2.194286-14.555429-3.510857-19.675429L160.548571 257.243429c-4.096-3.657143-9.435429-4.608-14.409143-3.584-16.676571-10.459429-31.524571-16.749714-40.740571-13.897143-85.357714 27.209143-81.92 231.936-78.848 294.546286C26.258286 536.064 25.892571 537.746286 25.673143 539.355429zM614.034286 511.122286c31.817143-17.188571 105.033143-29.696 174.08-29.696 59.392 0 108.324571 9.142857 137.947429 25.819429 18.212571 10.24 29.037714 28.233143 32.109714 53.394286 7.972571 64.658286-35.474286 151.771429-60.928 175.762286-19.821714 18.724571-70.582857 31.890286-123.465143 31.890286-50.468571 0-92.16-11.849143-111.250286-31.597714-13.385143-13.824-24.502857-29.257143-33.718857-44.397714 2.852571-0.438857 5.558857-1.316571 7.972571-2.998857 7.314286-5.558857 8.777143-16.018286 3.218286-23.259429L589.824 599.844571C584.045714 574.683429 579.584 529.773714 614.034286 511.122286zM65.828571 560.64c3.072-25.161143 13.897143-43.154286 32.182857-53.394286 29.549714-16.603429 78.482286-25.819429 137.947429-25.819429 69.046857 0 142.262857 12.507429 174.08 29.769143 34.304 18.505143 29.842286 63.414857 24.064 88.795429L384.073143 665.965714c-5.558857 7.314286-4.096 17.700571 3.145143 23.259429 2.413714 1.828571 5.193143 2.706286 7.972571 2.998857-9.216 15.140571-20.333714 30.573714-33.645714 44.397714-19.163429 19.748571-60.781714 31.597714-111.250286 31.597714-52.882286 0-103.643429-13.165714-123.465143-31.890286C101.376 712.411429 57.929143 625.298286 65.828571 560.64z" p-id="1016"></path></svg>