<svg xmlns="http://www.w3.org/2000/svg" width="538" height="477" viewBox="0 0 538 477" version="1.1" xmlns:xlink="http://www.w3.org/1999/xlink">
  <defs>
    <path id="a" d="M3 0h532c1.656854 0 3 1.3431457 3 3v474H0V3c0-1.6568543 1.3431457-3 3-3z"/>
    <path id="b" d="M4 0h120c2.209139 0 4 1.790861 4 4v32c0 2.209139-1.790861 4-4 4H4c-2.209139 0-4-1.790861-4-4V4c0-2.209139 1.790861-4 4-4z"/>
    <path id="c" d="M4 0h120c2.209139 0 4 1.790861 4 4v32c0 2.209139-1.790861 4-4 4H4c-2.209139 0-4-1.790861-4-4V4c0-2.209139 1.790861-4 4-4z"/>
    <rect id="d" width="128" height="40" x="0" y="0" rx="4"/>
    <path id="e" d="M4 0h120c2.209139 0 4 1.790861 4 4v32c0 2.209139-1.790861 4-4 4H4c-2.209139 0-4-1.790861-4-4V4c0-2.209139 1.790861-4 4-4z"/>
    <path id="f" d="M4 0h120c2.209139 0 4 1.790861 4 4v32c0 2.209139-1.790861 4-4 4H4c-2.209139 0-4-1.790861-4-4V4c0-2.209139 1.790861-4 4-4z"/>
    <path id="g" d="M4 0h240c2.209139 0 4 1.790861 4 4v144c0 2.209139-1.790861 4-4 4H4c-2.209139 0-4-1.790861-4-4V4c0-2.209139 1.790861-4 4-4z"/>
    <rect id="h" width="140" height="40" x="0" y="0" rx="3"/>
  </defs>
  <g fill="none" fill-rule="evenodd" stroke="none" stroke-width="1">
    <use fill="#F7F7F7" fill-rule="evenodd" xlink:href="#a"/>
    <path stroke="#E6E6E6" stroke-width="1" d="M.5 476.5h537V3c0-1.380712-1.119288-2.5-2.5-2.5H3C1.619288.5.5 1.619288.5 3v473.5z"/>
    <path fill="#000" fill-opacity=".45" d="M390.8674316 429.4038086V432h-1.5424804v-7.3950195h3.0786133c.89714 0 1.61336.2253395 2.1486816.6760254.535322.450685.802979 1.042069.802979 1.774169 0 .715173-.254961 1.282224-.764892 1.701172-.509931.418947-1.213455.634765-2.110595.647461h-1.612304zm0-1.2441406h1.536133c.4401062 0 .78605-.093098 1.0378416-.279297.2517917-.1861988.3776856-.4570294.3776856-.8125 0-.3681658-.1280098-.663329-.3840332-.885498-.2560234-.222169-.5977355-.333252-1.0251465-.333252h-1.54248v2.310547zm10.175293 2.2597656h-3.0595703L397.380127 432h-1.5551758l2.989746-7.3950195h1.4155274L403.2072754 432h-1.5615234l-.6030274-1.5805664zm-2.6088867-1.1743164h2.158203l-1.079102-2.805664-1.079102 2.805664zm8.543945.057129h-1.415528V432h-1.542481v-7.3950195h2.894531c.92253 0 1.637692.1936015 2.145508.5808105.507815.387209.761718.9405075.761718 1.659912 0 .9944712-.47607 1.684243-1.428223 2.069336l1.739258 3.0151368V432h-1.650391l-1.504395-2.697754zm-1.415528-1.2314454h1.35205c.457033 0 .799803-.1005036 1.02832-.3015137.228516-.20101.342773-.466551.342773-.79663 0-.342775-.111083-.615721-.333252-.818847-.222169-.203126-.568113-.304687-1.037842-.304687h-1.352051v2.22168zm11.343261-2.2216797h-2.450196V432h-1.54248v-6.150879h-2.418457v-1.2441405h6.411132v1.2441406zM424.294189 432h-1.536133l-3.326172-5.0463867V432h-1.54248v-7.3950195h1.542481l3.3261717 5.0527343v-5.0527343h1.536133V432zm6.227051-3.1992188h-3.1865234v1.9677735h3.732422V432h-5.2749028v-7.3950195h5.25586v1.2441406h-3.713379v1.713868h3.1865237v1.237793zm4.525879.501465h-1.4155274V432h-1.5424808v-7.3950195h2.894532c.9225307 0 1.637693.1936015 2.145508.5808105.507815.387209.7617186.9405075.7617186 1.659912 0 .9944712-.476069 1.684243-1.428222 2.069336l1.7392578 3.0151368V432h-1.6503906l-1.5043944-2.697754zm-1.4155274-1.2314454h1.3520505c.457034 0 .799804-.1005036 1.028321-.3015137.228516-.20101.342773-.466551.342773-.79663 0-.342775-.111083-.615721-.333252-.818847-.222169-.203126-.568113-.304687-1.037842-.304687h-1.35205v2.22168z"/>
    <g transform="translate(349 376)">
      <use fill="#FFF" fill-rule="evenodd" xlink:href="#b"/>
      <path stroke="#77838C" stroke-width="2" d="M4 1C2.3431458 1 1 2.3431458 1 4v32c0 1.6568542 1.3431458 3 3 3h120c1.656854 0 3-1.3431458 3-3V4c0-1.6568542-1.343146-3-3-3H4z"/>
    </g>
    <path fill="#41484D" d="M393.3896485 397.1762695h-3.5302735L389.1635742 399h-1.7944335l3.449707-8.5327148h1.6333008L395.887207 399h-1.8017578l-.6958007-1.8237305zm-3.010254-1.3549804h2.4902344l-1.245118-3.237304-1.245117 3.237305zm8.492955.183106V399h-1.7797853v-8.5327148h3.552246c1.0351615 0 1.8615693.260007 2.479248.7800293.617679.520022.9265138 1.2023883.9265138 2.047119 0 .8251995-.2941865 1.47949-.8825684 1.9628907-.5883818.483401-1.4001413.7324218-2.4353027.7470703h-1.860352zm0-1.435547h1.7724608c.507815 0 .906981-.107421 1.1975098-.322265.290529-.214844.435791-.527341.435791-.9375 0-.424806-.147703-.765379-.443115-1.021728-.295411-.256349-.689695-.384521-1.182861-.384521h-1.779785v2.666016zM407.5410855 399h-1.772461v-8.5327148h1.772461V399zm2.6555522.9155273h-1.3989257l4.1967774-11.5795898h1.3989258l-4.1967774 11.5795898zm9.064244-4.0283203h-1.633301V399h-1.779785v-8.5327148h3.3398437c1.0644585 0 1.8896455.2233864 2.475586.670166.5859404.4467795.8789062 1.085201.8789062 1.9152832 0 1.1474666-.549311 1.943357-1.6479492 2.3876953l2.006836 3.479004V399h-1.904297l-1.7358398-3.112793zm-1.633301-1.4208984h1.5600587c.5273464 0 .9228502-.1159656 1.1865234-.3479004.263673-.2319348.3955078-.5383282.3955078-.9191894 0-.3955098-.1281726-.710448-.3845215-.9448243-.256349-.234376-.655515-.3515625-1.197509-.3515625h-1.560058v2.5634766zm8.4416854 1.538086V399h-1.779785v-8.5327148h3.552246c1.035162 0 1.86157.260007 2.479248.7800293.617679.520022.926514 1.2023883.926514 2.047119 0 .8251995-.294186 1.47949-.882568 1.9628907-.588382.483401-1.400141.7324218-2.435303.7470703h-1.860351zm0-1.435547h1.772461c.507815 0 .906981-.1074207 1.19751-.3222656.290529-.2148448.435791-.5273417.435791-.9375 0-.4248068-.147703-.7653795-.443115-1.0217285-.295411-.256349-.689695-.3845215-1.182861-.3845215h-1.779785v2.6660157zm13.905553 1.5893555c-.083008.932622-.447995 1.658933-1.09497 2.178956-.646976.520022-1.500239.78003-2.559814.78003-1.152349 0-2.065426-.366207-2.739258-1.098633-.673831-.732425-1.010742-1.750482-1.010742-3.054199v-.498047c0-.825199.153807-1.549069.461426-2.171631.307619-.622562.749509-1.102293 1.325684-1.439209.576175-.336916 1.245114-.505371 2.006836-.505371 1.044927 0 1.884763.266111 2.519532.79834.634769.532229 1.000976 1.271968 1.098633 2.219239h-1.779785c-.058594-.546878-.240477-.948485-.545654-1.204834-.305177-.256349-.736081-.384522-1.292724-.384522-1.34278 0-2.01416.903312-2.01416 2.709961v.527344c0 .903325.163573 1.575926.490723 2.017823.32715.441897.82031.662842 1.479493.662842.58594 0 1.030272-.119627 1.333008-.358886.302736-.239259.48584-.632321.549317-1.179199h1.772461z"/>
    <g transform="translate(349 39)">
      <use fill="#FFF" fill-rule="evenodd" xlink:href="#c"/>
      <path stroke="#77838C" stroke-width="2" d="M4 1C2.3431458 1 1 2.3431458 1 4v32c0 1.6568542 1.3431458 3 3 3h120c1.656854 0 3-1.3431458 3-3V4c0-1.6568542-1.343146-3-3-3H4z"/>
    </g>
    <path fill="#41484D" d="M393.3896485 60.1762695h-3.5302735L389.1635742 62h-1.7944335l3.449707-8.5327148h1.6333008L395.887207 62h-1.8017578l-.6958007-1.8237305zm-3.010254-1.3549804h2.4902344l-1.245118-3.237304-1.245117 3.237305zm8.492955.183106V62h-1.7797853v-8.5327148h3.552246c1.0351615 0 1.8615693.260007 2.479248.7800293.617679.520022.9265138 1.2023883.9265138 2.047119 0 .8251995-.2941865 1.47949-.8825684 1.9628907-.5883818.483401-1.4001413.7324218-2.4353027.7470703h-1.860352zm0-1.435547h1.7724608c.507815 0 .906981-.107421 1.1975098-.322265.290529-.214844.435791-.527341.435791-.9375 0-.424806-.147703-.765379-.443115-1.021728-.295411-.256349-.689695-.384521-1.182861-.384521h-1.779785v2.666016zM407.5410855 62h-1.772461v-8.5327148h1.772461V62zm2.6555522.9155273h-1.3989257l4.1967774-11.5795898h1.3989258l-4.1967774 11.5795898zm9.064244-4.0283203h-1.633301V62h-1.779785v-8.5327148h3.3398437c1.0644585 0 1.8896455.2233864 2.475586.670166.5859404.4467795.8789062 1.085201.8789062 1.9152832 0 1.1474666-.549311 1.943357-1.6479492 2.3876953l2.006836 3.479004V62h-1.904297l-1.7358398-3.112793zm-1.633301-1.4208984h1.5600587c.5273464 0 .9228502-.1159656 1.1865234-.3479004.263673-.2319348.3955078-.5383282.3955078-.9191894 0-.3955098-.1281726-.710448-.3845215-.9448243-.256349-.234376-.655515-.3515625-1.197509-.3515625h-1.560058v2.5634766zm8.4416854 1.538086V62h-1.779785v-8.5327148h3.552246c1.035162 0 1.86157.260007 2.479248.7800293.617679.520022.926514 1.2023883.926514 2.047119 0 .8251995-.294186 1.47949-.882568 1.9628907-.588382.483401-1.400141.7324218-2.435303.7470703h-1.860351zm0-1.435547h1.772461c.507815 0 .906981-.1074207 1.19751-.3222656.290529-.2148448.435791-.5273417.435791-.9375 0-.4248068-.147703-.7653795-.443115-1.0217285-.295411-.256349-.689695-.3845215-1.182861-.3845215h-1.779785v2.6660157zm13.905553 1.5893555c-.083008.932622-.447995 1.658933-1.09497 2.178956-.646976.520022-1.500239.78003-2.559814.78003-1.152349 0-2.065426-.366207-2.739258-1.098633-.673831-.732425-1.010742-1.750482-1.010742-3.054199v-.498047c0-.825199.153807-1.549069.461426-2.171631.307619-.622562.749509-1.102293 1.325684-1.439209.576175-.336916 1.245114-.505371 2.006836-.505371 1.044927 0 1.884763.266111 2.519532.79834.634769.532229 1.000976 1.271968 1.098633 2.219239h-1.779785c-.058594-.546878-.240477-.948485-.545654-1.204834-.305177-.256349-.736081-.384522-1.292724-.384522-1.34278 0-2.01416.903312-2.01416 2.709961v.527344c0 .903325.163573 1.575926.490723 2.017823.32715.441897.82031.662842 1.479493.662842.58594 0 1.030272-.119627 1.333008-.358886.302736-.239259.48584-.632321.549317-1.179199h1.772461z"/>
    <path fill="#000" fill-opacity=".45" d="M252.178711 429.4038086V432h-1.5424805v-7.3950195h3.0786133c.89714 0 1.61336.2253395 2.1486816.6760254.5353217.450685.8029785 1.042069.8029785 1.774169 0 .715173-.254962 1.282224-.764893 1.701172-.509931.418947-1.213456.634765-2.110596.647461h-1.612305zm0-1.2441406h1.5361328c.4401063 0 .78605-.093098 1.0378417-.279297.2517917-.1861988.3776856-.4570294.3776856-.8125 0-.3681658-.128009-.663329-.384033-.885498-.256023-.222169-.597735-.333252-1.025146-.333252h-1.54248v2.310547zm11.5908202-3.5546875v4.8686523c0 .8040405-.2718885 1.4430315-.8156738 1.9169922-.5437852.4739607-1.279048.7109375-2.2058105.7109375-.926763 0-1.660968-.233803-2.202637-.701416-.54167-.467613-.8125-1.1097778-.8125-1.9265137v-4.8686523h1.529785v4.875c0 .486656.133299.8400054.399902 1.0600586.266603.220054.628415.330079 1.085449.330079.96908 0 1.462076-.448563 1.479004-1.345703v-4.919433h1.54248zM265.1660156 432v-7.3950195h2.73584c.9394577 0 1.6577936.1745588 2.1550292.5236816.4972355.349123.7458496.853757.7458496 1.513916 0 .334312-.094156.640054-.2824707.917237-.1883148.277183-.4750144.489827-.8601075.63794.406252.097331.7278634.297281.9648438.599854.2369804.302573.3554688.663328.3554688 1.082276 0 .689782-.2390927 1.215575-.7172852 1.577393-.4781925.361818-1.1848912.542725-2.1201172.542725h-2.9770508zm1.5424805-3.2182617v1.9868164h1.447266c.431643 0 .753254-.0899242.964844-.2697754.21159-.1798512.317383-.4073066.317383-.682373 0-.6686232-.380855-1.013509-1.142578-1.034668h-1.586914zm0-1.0791016h1.345704c.385093-.0084636.682372-.0888664.891846-.241211.209474-.1523444.314209-.3745102.314209-.6665038 0-.334312-.108967-.575521-.326904-.723633-.217937-.148113-.540606-.222168-.968017-.222168h-1.256836v1.853515zm7.109375 3.065918h3.52295V432h-5.065429v-7.3950195h1.542481v6.1635742zM279.956055 432h-1.5361328v-7.3950195h1.5361327V432zm7.7631836-2.4628906c-.0719405.8082722-.3882622 1.437742-.9489746 1.8884277-.5607125.450686-1.300207.676026-2.218506.676026-.9987028 0-1.790036-.317379-2.3740233-.952148-.5839873-.634768-.8759766-1.517084-.8759766-2.646972v-.43164c0-.715173.1333-1.342526.399903-1.88208.266603-.539553.649575-.955321 1.148926-1.247314.499352-.291993 1.079099-.437988 1.739258-.437988.905604 0 1.633461.23063 2.183594.691895s.867513 1.102373.952149 1.92334h-1.54248c-.050781-.47396-.208413-.82202-.4729-1.044189-.264487-.222169-.637937-.333252-1.120361-.333252-1.163742 0-1.745605.78287-1.745605 2.348633v.457031c0 .782882.141763 1.365802.425293 1.748779.28353.382977.710935.574463 1.282227.574463.507815 0 .892902-.103677 1.155273-.311035s.421061-.548012.476075-1.021972h1.536133z"/>
    <g transform="translate(205 376)">
      <use fill="#FFF" fill-rule="evenodd" xlink:href="#d"/>
      <rect width="126" height="38" x="1" y="1" stroke="#77838C" stroke-width="2" rx="4"/>
    </g>
    <path fill="#41484D" d="M249.3896485 397.1762695h-3.5302735L245.1635742 399h-1.7944335l3.449707-8.5327148h1.6333008L251.887207 399h-1.8017578l-.6958007-1.8237305zm-3.010254-1.3549804h2.4902344l-1.245118-3.237304-1.245117 3.237305zm8.492955.183106V399h-1.7797853v-8.5327148h3.552246c1.0351615 0 1.8615693.260007 2.479248.7800293.617679.520022.9265138 1.2023883.9265138 2.047119 0 .8251995-.2941865 1.47949-.8825684 1.9628907-.5883818.483401-1.4001413.7324218-2.4353027.7470703h-1.860352zm0-1.435547h1.7724608c.507815 0 .906981-.107421 1.1975098-.322265.290529-.214844.435791-.527341.435791-.9375 0-.424806-.147703-.765379-.443115-1.021728-.295411-.256349-.689695-.384521-1.182861-.384521h-1.779785v2.666016zM263.5410855 399h-1.772461v-8.5327148h1.772461V399zm2.6555522.9155273h-1.3989257l4.1967774-11.5795898h1.3989258l-4.1967774 11.5795898zm9.064244-4.0283203h-1.633301V399h-1.779785v-8.5327148h3.3398437c1.0644585 0 1.8896455.2233864 2.475586.670166.5859404.4467795.8789062 1.085201.8789062 1.9152832 0 1.1474666-.549311 1.943357-1.6479492 2.3876953l2.006836 3.479004V399h-1.904297l-1.7358398-3.112793zm-1.633301-1.4208984h1.5600587c.5273464 0 .9228502-.1159656 1.1865234-.3479004.263673-.2319348.3955078-.5383282.3955078-.9191894 0-.3955098-.1281726-.710448-.3845215-.9448243-.256349-.234376-.655515-.3515625-1.197509-.3515625h-1.560058v2.5634766zm8.4416854 1.538086V399h-1.779785v-8.5327148h3.552246c1.035162 0 1.86157.260007 2.479248.7800293.617679.520022.926514 1.2023883.926514 2.047119 0 .8251995-.294186 1.47949-.882568 1.9628907-.588382.483401-1.400141.7324218-2.435303.7470703h-1.860351zm0-1.435547h1.772461c.507815 0 .906981-.1074207 1.19751-.3222656.290529-.2148448.435791-.5273417.435791-.9375 0-.4248068-.147703-.7653795-.443115-1.0217285-.295411-.256349-.689695-.3845215-1.182861-.3845215h-1.779785v2.6660157zm13.905553 1.5893555c-.083008.932622-.447995 1.658933-1.09497 2.178956-.646976.520022-1.500239.78003-2.559814.78003-1.152349 0-2.065426-.366207-2.739258-1.098633-.673831-.732425-1.010742-1.750482-1.010742-3.054199v-.498047c0-.825199.153807-1.549069.461426-2.171631.307619-.622562.749509-1.102293 1.325684-1.439209.576175-.336916 1.245114-.505371 2.006836-.505371 1.044927 0 1.884763.266111 2.519532.79834.634769.532229 1.000976 1.271968 1.098633 2.219239h-1.779785c-.058594-.546878-.240477-.948485-.545654-1.204834-.305177-.256349-.736081-.384522-1.292724-.384522-1.34278 0-2.01416.903312-2.01416 2.709961v.527344c0 .903325.163573 1.575926.490723 2.017823.32715.441897.82031.662842 1.479493.662842.58594 0 1.030272-.119627 1.333008-.358886.302736-.239259.48584-.632321.549317-1.179199h1.772461z"/>
    <path fill="#000" fill-opacity=".45" d="M105.2668457 429.4038086V432h-1.5424805v-7.3950195h3.0786133c.89714 0 1.61336.2253395 2.1486817.6760254.5353216.450685.8029785 1.042069.8029785 1.774169 0 .715173-.2549617 1.282224-.7648926 1.701172-.50993.418947-1.213455.634765-2.110595.647461h-1.612304zm0-1.2441406h1.5361328c.4401064 0 .7860502-.093098 1.0378418-.279297.2517916-.1861988.3776856-.4570294.3776856-.8125 0-.3681658-.12801-.663329-.384034-.885498-.256024-.222169-.597736-.333252-1.025147-.333252h-1.542481v2.310547zm8.607422 1.142578H112.45874V432h-1.5424804v-7.3950195h2.8945312c.9225307 0 1.6376928.1936015 2.1455078.5808105.507815.387209.7617188.9405075.7617188 1.659912 0 .9944712-.4760695 1.684243-1.4282227 2.069336l1.7392577 3.0151368V432h-1.6503906l-1.5043944-2.697754zm-1.4155275-1.2314452h1.3520508c.4570336 0 .7998036-.1005036 1.0283203-.3015137.2285168-.20101.3427735-.466551.3427735-.79663 0-.342775-.111083-.615721-.333252-.818847-.222169-.203126-.568113-.304687-1.0378418-.304687h-1.3520508v2.22168zM119.6315918 432h-1.5361328v-7.3950195h1.5361328V432zm4.3608398-1.9804688l.1206055.4887696.114258-.4760742 1.840821-5.427246h1.631348L124.893799 432h-1.5615234l-2.7993164-7.3950195h1.6313473l1.828125 5.4145507zm9.0390625.3999024h-3.05957L129.368897 432h-1.5551758l2.989746-7.3950195h1.4155273L135.196045 432h-1.5615235l-.6030274-1.5805664zm-2.608886-1.1743164h2.158203l-1.079101-2.805664-1.079101 2.805664zm11.070313-3.395996h-2.450195V432h-1.54248v-6.150879h-2.418457v-1.2441405h6.411133v1.2441406zm5.712891 2.95166h-3.186523v1.9677735h3.732422V432h-5.274902v-7.3950195h5.25586v1.2441406h-3.713379v1.713868h3.186524v1.237793z"/>
    <g transform="translate(61 376)">
      <use fill="#FFF" fill-rule="evenodd" xlink:href="#e"/>
      <path stroke="#77838C" stroke-width="2" d="M4 1C2.3431458 1 1 2.3431458 1 4v32c0 1.6568542 1.3431458 3 3 3h120c1.656854 0 3-1.3431458 3-3V4c0-1.6568542-1.343146-3-3-3H4z"/>
    </g>
    <path fill="#41484D" d="M104.8896485 396.1762695h-3.5302735L100.6635742 398h-1.7944335l3.449707-8.5327148h1.6333008L107.387207 398h-1.8017578l-.6958007-1.8237305zm-3.010254-1.3549804h2.4902344l-1.245118-3.237304-1.245117 3.237305zm8.492955.183106V398h-1.7797853v-8.5327148h3.552246c1.0351615 0 1.8615693.260007 2.479248.7800293.617679.520022.9265138 1.2023883.9265138 2.047119 0 .8251995-.2941865 1.47949-.8825684 1.9628907-.5883818.483401-1.4001413.7324218-2.4353027.7470703h-1.860352zm0-1.435547h1.7724608c.507815 0 .906981-.107421 1.1975098-.322265.290529-.214844.435791-.527341.435791-.9375 0-.424806-.147703-.765379-.443115-1.021728-.295411-.256349-.689695-.384521-1.182861-.384521h-1.779785v2.666016zM119.0410855 398h-1.772461v-8.5327148h1.772461V398zm2.6555522.9155273h-1.3989257l4.1967774-11.5795898h1.3989258l-4.1967774 11.5795898zm9.064244-4.0283203h-1.633301V398h-1.779785v-8.5327148h3.3398437c1.0644585 0 1.8896455.2233864 2.475586.670166.5859404.4467795.8789062 1.085201.8789062 1.9152832 0 1.1474666-.549311 1.943357-1.6479492 2.3876953l2.006836 3.479004V398h-1.904297l-1.7358398-3.112793zm-1.633301-1.4208984h1.5600587c.5273464 0 .9228502-.1159656 1.1865234-.3479004.263673-.2319348.3955078-.5383282.3955078-.9191894 0-.3955098-.1281726-.710448-.3845215-.9448243-.256349-.234376-.655515-.3515625-1.197509-.3515625h-1.560058v2.5634766zm8.4416854 1.538086V398h-1.779785v-8.5327148h3.552246c1.035162 0 1.86157.260007 2.479248.7800293.617679.520022.926514 1.2023883.926514 2.047119 0 .8251995-.294186 1.47949-.882568 1.9628907-.588382.483401-1.400141.7324218-2.435303.7470703h-1.860351zm0-1.435547h1.772461c.507815 0 .906981-.1074207 1.19751-.3222656.290529-.2148448.435791-.5273417.435791-.9375 0-.4248068-.147703-.7653795-.443115-1.0217285-.295411-.256349-.689695-.3845215-1.182861-.3845215h-1.779785v2.6660157zm13.905553 1.5893555c-.083008.932622-.447995 1.658933-1.09497 2.178956-.646976.520022-1.500239.78003-2.559814.78003-1.152349 0-2.065426-.366207-2.739258-1.098633-.673831-.732425-1.010742-1.750482-1.010742-3.054199v-.498047c0-.825199.153807-1.549069.461426-2.171631.307619-.622562.749509-1.102293 1.325684-1.439209.576175-.336916 1.245114-.505371 2.006836-.505371 1.044927 0 1.884763.266111 2.519532.79834.634769.532229 1.000976 1.271968 1.098633 2.219239h-1.779785c-.058594-.546878-.240477-.948485-.545654-1.204834-.305177-.256349-.736081-.384522-1.292724-.384522-1.34278 0-2.01416.903312-2.01416 2.709961v.527344c0 .903325.163573 1.575926.490723 2.017823.32715.441897.82031.662842 1.479493.662842.58594 0 1.030272-.119627 1.333008-.358886.302736-.239259.48584-.632321.549317-1.179199h1.772461z"/>
    <g transform="translate(61 39)">
      <use fill="#FFF" fill-rule="evenodd" xlink:href="#f"/>
      <path stroke="#77838C" stroke-width="2" d="M4 1C2.3431458 1 1 2.3431458 1 4v32c0 1.6568542 1.3431458 3 3 3h120c1.656854 0 3-1.3431458 3-3V4c0-1.6568542-1.343146-3-3-3H4z"/>
    </g>
    <path fill="#41484D" d="M104.8896485 59.1762695h-3.5302735L100.6635742 61h-1.7944335l3.449707-8.5327148h1.6333008L107.387207 61h-1.8017578l-.6958007-1.8237305zm-3.010254-1.3549804h2.4902344l-1.245118-3.237304-1.245117 3.237305zm8.492955.183106V61h-1.7797853v-8.5327148h3.552246c1.0351615 0 1.8615693.260007 2.479248.7800293.617679.520022.9265138 1.2023883.9265138 2.047119 0 .8251995-.2941865 1.47949-.8825684 1.9628907-.5883818.483401-1.4001413.7324218-2.4353027.7470703h-1.860352zm0-1.435547h1.7724608c.507815 0 .906981-.107421 1.1975098-.322265.290529-.214844.435791-.527341.435791-.9375 0-.424806-.147703-.765379-.443115-1.021728-.295411-.256349-.689695-.384521-1.182861-.384521h-1.779785v2.666016zM119.0410855 61h-1.772461v-8.5327148h1.772461V61zm2.6555522.9155273h-1.3989257l4.1967774-11.5795898h1.3989258l-4.1967774 11.5795898zm9.064244-4.0283203h-1.633301V61h-1.779785v-8.5327148h3.3398437c1.0644585 0 1.8896455.2233864 2.475586.670166.5859404.4467795.8789062 1.085201.8789062 1.9152832 0 1.1474666-.549311 1.943357-1.6479492 2.3876953l2.006836 3.479004V61h-1.904297l-1.7358398-3.112793zm-1.633301-1.4208984h1.5600587c.5273464 0 .9228502-.1159656 1.1865234-.3479004.263673-.2319348.3955078-.5383282.3955078-.9191894 0-.3955098-.1281726-.710448-.3845215-.9448243-.256349-.234376-.655515-.3515625-1.197509-.3515625h-1.560058v2.5634766zm8.4416854 1.538086V61h-1.779785v-8.5327148h3.552246c1.035162 0 1.86157.260007 2.479248.7800293.617679.520022.926514 1.2023883.926514 2.047119 0 .8251995-.294186 1.47949-.882568 1.9628907-.588382.483401-1.400141.7324218-2.435303.7470703h-1.860351zm0-1.435547h1.772461c.507815 0 .906981-.1074207 1.19751-.3222656.290529-.2148448.435791-.5273417.435791-.9375 0-.4248068-.147703-.7653795-.443115-1.0217285-.295411-.256349-.689695-.3845215-1.182861-.3845215h-1.779785v2.6660157zm13.905553 1.5893555c-.083008.932622-.447995 1.658933-1.09497 2.178956-.646976.520022-1.500239.78003-2.559814.78003-1.152349 0-2.065426-.366207-2.739258-1.098633-.673831-.732425-1.010742-1.750482-1.010742-3.054199v-.498047c0-.825199.153807-1.549069.461426-2.171631.307619-.622562.749509-1.102293 1.325684-1.439209.576175-.336916 1.245114-.505371 2.006836-.505371 1.044927 0 1.884763.266111 2.519532.79834.634769.532229 1.000976 1.271968 1.098633 2.219239h-1.779785c-.058594-.546878-.240477-.948485-.545654-1.204834-.305177-.256349-.736081-.384522-1.292724-.384522-1.34278 0-2.01416.903312-2.01416 2.709961v.527344c0 .903325.163573 1.575926.490723 2.017823.32715.441897.82031.662842 1.479493.662842.58594 0 1.030272-.119627 1.333008-.358886.302736-.239259.48584-.632321.549317-1.179199h1.772461z"/>
    <g fill="#ACB7BF">
      <path d="M413 335h1v35h-2v-33H269v-2h144z"/>
      <path d="M274 316l-5-8-5 8h4v56h2v-56"/>
      <path d="M125 335h-1v35h2v-33h143v-2H125z"/>
    </g>
    <g transform="translate(145 152)">
      <use fill="#FFF" fill-rule="evenodd" xlink:href="#g"/>
      <path stroke="#77838C" stroke-width="2" d="M4 1C2.3431458 1 1 2.3431458 1 4v144c0 1.656854 1.3431458 3 3 3h240c1.656854 0 3-1.343146 3-3V4c0-1.6568542-1.343146-3-3-3H4z"/>
    </g>
    <path fill="#FC6437" fill-opacity=".2" d="M274 266h110c1.656854 0 3 1.3431457 3 3v26c0 1.6568542-1.343146 3-3 3H274c-1.6568543 0-3-1.3431458-3-3v-26c0-1.6568543 1.3431457-3 3-3z"/>
    <path fill="#262626" d="M301.7641602 280.5634766c-1.1256567-.3235694-1.9448217-.721189-2.4575196-1.192871-.512698-.4716822-.769043-1.0538704-.769043-1.7465822 0-.783858.3133107-1.4321263.9399415-1.9448242.626631-.512698 1.441239-.769043 2.443848-.769043.683597 0 1.293129.1321602 1.828614.3964844.535485.2643243.950194.628904 1.244141 1.09375s.440918.972979.440918 1.524414h-1.319336c0-.6015654-.191404-1.0743797-.574218-1.418457-.382814-.3440772-.922848-.5161132-1.620117-.5161132-.647139 0-1.151854.142414-1.51416.427246-.362307.2848322-.543457.6801733-.543457 1.1860352 0 .405601.172036.7485338.516114 1.0288086.344077.280275.929684.53662 1.756836.769043.827153.232423 1.474282.488768 1.941406.769043.467125.2802748.813476.6072572 1.039063.980957.225587.3736998.338379.813474.338379 1.319336 0 .8066446-.31445 1.4526342-.943359 1.9379882-.628909.485354-1.469721.7280274-2.522461.7280274-.683597 0-1.321611-.131021-1.914062-.3930665-.592451-.2620455-1.049314-.6209287-1.370605-1.07666-.32129-.4557316-.481933-.972979-.481933-1.551758h1.319336c0 .6015656.222166 1.0766585.666504 1.425293.444338.3486346 1.037919.5229493 1.780762.5229493.692712 0 1.223631-.1412747 1.592773-.4238282.369143-.2825535.553711-.6676408.553711-1.1552734 0-.4876326-.170897-.8647448-.512695-1.1313477-.341798-.266603-.961584-.5297838-1.859375-.7895507zm8.2441406 4.5732422c-1.0026092 0-1.8183562-.329261-2.4472656-.987793-.6289094-.658532-.9433594-1.5392198-.9433594-2.64209v-.2324217c0-.733727.1401353-1.388831.42041-1.965332.280275-.5765.672198-1.027667 1.1757814-1.353515.5035832-.325848 1.0493135-.488769 1.637207-.488769.9615934 0 1.7089817.316729 2.2421875.950196s.7998047 1.540359.7998047 2.720703v.526368h-5.0107422c.0182293.729171.2312805 1.318195.6391602 1.76709.4078796.448896.9262664.67334 1.5551758.67334.4466168 0 .8248682-.091145 1.1347656-.273437.3098974-.182292.5810535-.423826.8134765-.724609l.772461.601563c-.6197948.952479-1.549473 1.428711-2.7890625 1.428711zm-.1572266-6.6308594c-.5104192 0-.9388003.1857078-1.2851562.557129-.346356.371421-.5605465.8920864-.6425782 1.5620116h3.7050782v-.095703c-.0364585-.6425815-.209634-1.1404606-.5195313-1.4936525-.3098974-.3531918-.729164-.529785-1.2578125-.529785zm8.080078.2324218c-.191407-.0319012-.3987618-.0478515-.6220702-.0478515-.8294312 0-1.392251.3531866-1.6884765 1.0595703V285h-1.2646485v-7.3964844h1.2304688l.0205078.8544922c.4147156-.6608106 1.0026004-.991211 1.763672-.991211.2460948 0 .432942.0319008.5605467.0957032v1.1757812zm3.6025392 4.5458985l1.8320313-5.680664h1.291992L322.0053712 285h-.963867l-2.6796876-7.3964844h1.2919922l1.8798828 5.680664zm7.4101563 1.852539c-1.0026092 0-1.8183563-.329261-2.4472657-.987793s-.9433593-1.5392197-.9433593-2.6420898v-.232422c0-.733728.1401353-1.388832.42041-1.965332.280275-.576501.672198-1.027668 1.1757814-1.353516.503584-.325848 1.049314-.48877 1.637207-.48877.961594 0 1.708982.316728 2.242188.950195.533206.633466.799805 1.540358.799805 2.720703v.526367h-5.010742c.01823.72917.231281 1.318194.63916 1.767089.40788.448895.926267.67334 1.555176.67334.446617 0 .824869-.091145 1.134766-.273438.309898-.182293.581054-.423827.813477-.72461l.772461.601563c-.619795.952478-1.549473 1.428711-2.789062 1.428711zm-.1572266-6.6308593c-.510419 0-.9388.1857078-1.285156.557129-.346356.371421-.560546.8920864-.642578 1.5620116h3.705078v-.095703c-.036458-.6425815-.209634-1.1404606-.519531-1.4936525-.309897-.3531918-.729164-.529785-1.257812-.529785zm8.080079.2324218c-.191407-.0319012-.398762-.0478515-.62207-.0478515-.829431 0-1.392251.3531866-1.688476 1.0595703V285h-1.264648v-7.3964844h1.230469l.020508.8544922c.414716-.6608106 1.0026-.991211 1.763672-.991211.246095 0 .432942.0319008.560547.0957032v1.1757812zM339.402832 285h-1.2646484v-10.5h1.2646484V285zm5.0927735.1367188c-1.0026092 0-1.8183563-.329261-2.4472657-.987793s-.9433593-1.5392198-.9433593-2.64209v-.2324217c0-.733727.1401353-1.388831.42041-1.965332.280275-.5765.672198-1.027667 1.1757814-1.353515.503583-.325848 1.049313-.488769 1.637207-.488769.961593 0 1.708981.316729 2.242187.950196s.799804 1.540359.799804 2.720703v.526368h-5.010742c.018229.729171.23128 1.318195.63916 1.76709.407879.448896.926266.67334 1.555175.67334.446617 0 .824868-.091145 1.134765-.273437s.581053-.423826.813476-.724609l.772461.601563c-.619795.952479-1.549473 1.428711-2.789063 1.428711zm-.1572266-6.6308594c-.51042 0-.938801.1857078-1.285157.557129-.346356.371421-.560547.8920864-.642578 1.5620116h3.705078v-.095703c-.036459-.6425815-.209634-1.1404606-.519532-1.4936525-.309898-.3531918-.729164-.529785-1.257813-.529785zm8.811523 4.5322265c0-.341799-.128742-.607259-.386231-.796387-.257489-.189129-.706377-.35205-1.34668-.48877-.640303-.13672-1.148436-.300781-1.524414-.492188-.375979-.191407-.653971-.41927-.833985-.683594-.180014-.264325-.27002-.578775-.27002-.94336 0-.606123.256345-1.118813.769043-1.538086.512698-.419273 1.167802-.628906 1.965332-.628906.838546 0 1.518715.216469 2.040527.649414.521812.432944.782714.98665.782714 1.661132h-1.271484c0-.346356-.146971-.644856-.440918-.895508-.293947-.250652-.664223-.375977-1.11084-.375977-.460289 0-.820311.100259-1.080078.300781-.259767.200522-.389649.462563-.389649.786133 0 .30534.120767.535481.362304.690429.241538.154949.677894.303059 1.309082.444336.631188.141277 1.142739.309895 1.534668.505859.391929.195964.682453.431802.871582.707519.189128.275717.283691.611814.283691 1.008301 0 .66081-.26432 1.19059-.792969 1.589355-.528649.398765-1.214514.598145-2.057617.598145-.592451 0-1.116534-.104817-1.572266-.314453-.455731-.209637-.812336-.50244-1.069824-.878418-.257489-.375979-.386231-.782713-.386231-1.220215h1.264648c.022786.42383.192544.759927.509277 1.008301.316733.248374.734861.372559 1.254394.372559.478518 0 .862466-.096842 1.1518555-.290528.2893894-.193686.434082-.45231.434082-.775879zm7.21875 0c0-.341799-.128742-.607259-.386231-.796387-.257489-.189129-.706377-.35205-1.34668-.48877-.640303-.13672-1.148436-.300781-1.524414-.492188-.375979-.191407-.653971-.41927-.833985-.683594-.180014-.264325-.27002-.578775-.27002-.94336 0-.606123.256345-1.118813.769043-1.538086.512698-.419273 1.167802-.628906 1.965332-.628906.838546 0 1.518715.216469 2.040527.649414.521812.432944.782714.98665.782714 1.661132h-1.271484c0-.346356-.146971-.644856-.440918-.895508-.293947-.250652-.664223-.375977-1.11084-.375977-.460289 0-.820311.100259-1.080078.300781-.259767.200522-.389649.462563-.389649.786133 0 .30534.120767.535481.362304.690429.241538.154949.677894.303059 1.309082.444336.631188.141277 1.142739.309895 1.534668.505859.391929.195964.682453.431802.871582.707519.189128.275717.283691.611814.283691 1.008301 0 .66081-.26432 1.19059-.792969 1.589355-.528649.398765-1.214514.598145-2.057617.598145-.592451 0-1.116534-.104817-1.572266-.314453-.455731-.209637-.812336-.50244-1.069824-.878418-.257489-.375979-.386231-.782713-.386231-1.220215h1.264648c.022786.42383.192544.759927.509277 1.008301.316733.248374.734861.372559 1.254394.372559.478518 0 .862466-.096842 1.1518555-.290528.2893894-.193686.434082-.45231.434082-.775879z"/>
    <path fill="#FD4253" fill-opacity=".2" d="M154 266h110c1.656854 0 3 1.3431457 3 3v26c0 1.6568542-1.343146 3-3 3H154c-1.6568543 0-3-1.3431458-3-3v-26c0-1.6568543 1.3431457-3 3-3z"/>
    <path fill="#262626" d="M173.6875 280.9736328h-2.3378906V285h-1.319336v-9.953125h3.294922c1.1210993 0 1.983558.2552058 2.5874023.765625.603844.5104192.9057617 1.2532503.9057617 2.2285156 0 .6197948-.1674788 1.1598285-.5024414 1.6201172-.3349626.4602888-.800941.804361-1.3979492 1.0322266l2.3378906 4.2246094V285h-1.4082032l-2.1601562-4.0263672zm-2.3378906-1.0732422h2.0166015c.651696 0 1.170082-.168618 1.555175-.5058594.385093-.3372412.577636-.7884086.577636-1.3535156 0-.6152374-.183429-1.0869124-.550293-1.415039-.366864-.3281267-.896644-.4944662-1.589356-.4990235h-2.009766v3.773438zM183.0253906 285c-.072917-.145834-.1321612-.405597-.1777344-.779297-.5878935.6106803-1.2897094.9160158-2.1054687.9160158-.7291703 0-1.327309-.2062154-1.7944336-.6186524-.467125-.412437-.700684-.935381-.700684-1.5688476 0-.7701862.292803-1.3683247.878418-1.7944336.585615-.426109 1.409337-.6391602 2.471191-.6391602h1.230468v-.5810547c0-.4420595-.13216-.7941068-.396485-1.0561523-.264325-.2620456-.653969-.3930664-1.168946-.3930664-.451174 0-.829426.113931-1.134766.3417968-.30534.2278658-.458008.503579-.458008.8271485h-1.271484c0-.369143.131021-.725747.393066-1.069825.262045-.344078.617511-.616373 1.066406-.816895.448895-.200522.942217-.300781 1.47998-.300781.852218 0 1.519854.213051 2.00293.63916.483075.426109.733723 1.012854.751953 1.760254v3.404296c0 .67904.086587 1.219073.259765 1.620117V285h-1.326172zm-2.0986328-.9638672c.3964864 0 .7724592-.102538 1.1279297-.3076172.3554705-.205079.612955-.471678.772461-.7998047v-1.517579h-.991211c-1.549487 0-2.3242187.453446-2.3242187 1.360351 0 .396486.13216.706379.3964843.929687.264325.223308.60384.334961 1.018555.334961zm6.8632813-8.2236328v1.7910156h1.38086v.977539h-1.380859v4.5869142c0 .2962254.061523.518391.184571.666504.123048.1481126.332681.2221678.628906.2221678.145834 0 .346353-.0273435.601563-.0820312V285c-.332683.0911463-.656248.1367188-.970703.1367188-.565107 0-.991209-.1708968-1.27832-.5126954-.28711-.3417985-.430664-.8271453-.430664-1.4560546v-4.586914h-1.346679v-.9775392h1.34668V275.8125h1.264649zm5.926758 9.3242188c-1.002609 0-1.818356-.329261-2.447265-.987793-.628909-.658532-.943359-1.5392198-.943359-2.64209v-.2324217c0-.733727.140136-1.388831.42041-1.965332.280275-.5765.672198-1.027667 1.175782-1.353515.503583-.325848 1.049314-.488769 1.637207-.488769.961594 0 1.708982.316729 2.242188.950196s.799805 1.540359.799805 2.720703v.526368h-5.010742c.018229.729171.231281 1.318195.63916 1.76709.40788.448896.926267.67334 1.555176.67334.446617 0 .824869-.091145 1.134766-.273437s.581054-.423826.813477-.724609l.772461.601563c-.619795.952479-1.549473 1.428711-2.789062 1.428711zm-.157226-6.6308594c-.510419 0-.9388.1857078-1.285156.557129-.346356.371421-.560546.8920864-.642578 1.5620116h3.705078v-.095703c-.036458-.6425815-.209634-1.1404606-.519531-1.4936525-.309897-.3531918-.729164-.529785-1.257812-.529785zm7.136719 2.7822265h-3.335937v-1.032227h3.335938v1.032226zm2.748047 2.638671h4.716797V285H202.125v-9.953125h1.319336v8.8798828zM210.833985 285h-1.264649v-7.3964844h1.2646484V285zm-1.367188-9.3583984c0-.2050792.062662-.3782545.1879882-.5195313.125326-.1412767.311034-.211914.557129-.211914.2460947 0 .432942.0706373.5605466.211914.1276047.1412768.1914062.314452.1914062.5195313 0 .205079-.063802.3759758-.191407.5126953-.127605.136719-.314452.205078-.560547.205078s-.4318028-.068359-.557129-.205078c-.125326-.13672-.1879882-.307617-.1879882-.512696zm4.580078 1.961914l.0341797.8203125c.5423204-.638024 1.2737584-.957031 2.194336-.957031 1.0345103 0 1.7386048.396481 2.1123046 1.189453.246095-.35547.566242-.642577.96045-.861328.3942078-.218751.860186-.328125 1.3979494-.328125 1.622404 0 2.4472654.859041 2.4746093 2.577149V285h-1.2646483v-4.8808594c0-.5286485-.120767-.9239896-.362305-1.186035-.241538-.2620457-.6471327-.3930665-1.216797-.3930665-.4694034 0-.859048.140136-1.1689453.420411-.3098974.280275-.4899086.657387-.540039 1.131348V285h-1.2714844v-4.8466797c0-1.0755262-.526362-1.6132812-1.5791016-1.6132812-.8294315 0-1.3968087.353187-1.7021487 1.059571V285h-1.2646485v-7.3964844h1.196289zM226.501953 285h-1.2646483v-7.3964844h1.2646484V285zm-1.3671874-9.3583984c0-.2050792.0626622-.3782545.1879883-.5195313.125326-.1412767.311033-.211914.557128-.211914s.432942.0706373.560547.211914c.127604.1412768.191406.314452.191406.5195313 0 .205079-.063802.3759758-.191406.5126953-.127605.136719-.314452.205078-.560547.205078s-.431803-.068359-.557129-.205078c-.125326-.13672-.187988-.307617-.187988-.512696zm5.1064453.1708984v1.7910156h1.380859v.977539h-1.38086v4.5869142c0 .2962254.061522.518391.18457.666504.123047.1481126.332681.2221678.628906.2221678.145834 0 .346353-.0273435.601562-.0820312V285c-.332684.0911463-.656249.1367188-.970703.1367188-.565107 0-.99121-.1708968-1.278321-.5126954-.287111-.3417985-.430664-.8271453-.430664-1.4560546v-4.586914h-1.34668v-.9775392h1.34668V275.8125h1.264648zM234.472656 285h-1.2646484v-7.3964844h1.2646484V285zm-1.3671874-9.3583984c0-.2050792.062662-.3782545.1879882-.5195313.1253262-.1412767.311034-.211914.557129-.211914s.432942.0706373.5605468.211914c.1276048.1412768.1914063.314452.1914063.5195313 0 .205079-.063802.3759758-.191407.5126953-.127605.136719-.314452.205078-.560547.205078s-.431803-.068359-.557129-.205078c-.125326-.13672-.187989-.307617-.187989-.512696zm4.586914 1.961914l.0410156.9296875c.565107-.710941 1.303381-1.066406 2.2148438-1.066406 1.5631588 0 2.3515624.881827 2.3652344 2.645508V285h-1.2646485v-4.8945312c-.004558-.5332058-.126464-.9274076-.365723-1.1826172-.239259-.2552096-.611814-.3828125-1.117676-.3828125-.410159 0-.770181.109374-1.080078.328125-.309898.218752-.551432.505858-.72461.861329V285h-1.264649v-7.3964844h1.196289zm6.227539 3.6367188c0-1.1530006.266599-2.0701464.7998048-2.751465.5332058-.6813184 1.239579-1.0219725 2.1191406-1.0219725.9023482 0 1.6064428.319007 2.1123047.957031l.0615233-.820313h1.1552735v7.21875c0 .957036-.2836886 1.71126-.8510743 2.262695-.5673856.551435-1.329585.827148-2.286621.827148-.533206 0-1.0550105-.113931-1.5654297-.341797-.5104193-.227866-.9000638-.540037-1.1689454-.936524l.65625-.758789c.542321.669925 1.2054 1.004882 1.989258 1.004882.615238 0 1.094888-.173176 1.438965-.519531.344077-.346356.516113-.833982.516113-1.462891v-.635742c-.505862.583336-1.196284.875-2.071289.875-.865889 0-1.566566-.34863-2.102051-1.045899-.535484-.697269-.803222-1.647455-.803222-2.850586zm1.2714844.1435547c0 .833989.1708968 1.489093.5126954 1.965332.3417985.47624.8203094.714356 1.4355468.714356.79753 0 1.3831362-.362301 1.756836-1.086914v-3.376953c-.3873718-.706383-.9684206-1.05957-1.743164-1.05957-.6152375 0-1.096027.239256-1.442383.717774-.3463558.478518-.5195312 1.18717-.5195312 2.125977z"/>
    <path fill="#EC4894" fill-opacity=".3" d="M314 230h70c1.6568542 0 3 1.3431457 3 3v26c0 1.6568542-1.3431458 3-3 3h-70c-1.6568543 0-3-1.3431458-3-3v-26c0-1.6568543 1.3431457-3 3-3z"/>
    <path fill="#262626" d="M332.1049805 245.841797c-.1230475 1.0527395-.5115528 1.8650686-1.1655274 2.4370116-.653974.571943-1.523269.8579102-2.60791.8579102-1.175787 0-2.117997-.4215453-2.82666-1.2646485-.708662-.8431032-1.062988-1.9710216-1.062988-3.383789v-.9570313c0-.9251348.1652-1.7386033.495606-2.4404297.330406-.7018264.798663-1.2407208 1.404786-1.6166992.606123-.375978 1.307939-.563964 2.105469-.563964 1.057297 0 1.904945.295082 2.542969.885254.638024.590172 1.00944 1.407059 1.114258 2.450684h-1.319336c-.113932-.792973-.361163-1.367186-.741699-1.722656-.380535-.35547-.912594-.533203-1.596191-.533203-.838546 0-1.495928.309893-1.972168.929688-.476239.619795-.714355 1.501622-.714355 2.645508v.963868c0 1.080083.225584 1.939124.676758 2.577148.451174.638024 1.082353.957032 1.893555.957032.729171 0 1.288572-.1652 1.678223-.495605.389651-.330405.648274-.905758.775879-1.726074h1.319336zM338.2641602 249c-.072917-.145834-.1321613-.405597-.1777344-.779297-.5878936.6106803-1.2897095.9160158-2.1054688.9160158-.7291703 0-1.3273088-.2062154-1.7944336-.6186524-.4671247-.412437-.7006836-.935381-.7006836-1.5688476 0-.7701862.292803-1.3683247.878418-1.7944336.585615-.426109 1.4093372-.6391602 2.4711914-.6391602h1.2304688v-.5810547c0-.4420595-.1321602-.7941068-.3964844-1.0561523-.2643242-.2620456-.6539688-.3930664-1.1689453-.3930664-.451174 0-.8294256.113931-1.1347656.3417968-.30534.2278658-.458008.503579-.458008.8271485h-1.2714842c0-.369143.1310208-.725747.3930664-1.069825.262045-.344078.61751-.616373 1.066406-.816895.448895-.200522.942217-.300781 1.47998-.300781.852218 0 1.519854.213051 2.002929.63916.483075.426109.733724 1.012854.751953 1.760254v3.404296c0 .67904.086588 1.219073.259765 1.620117V249h-1.326172zm-2.098633-.9638672c.3964865 0 .7724593-.102538 1.1279298-.3076172.3554706-.205079.612955-.471678.772461-.7998047v-1.517579h-.991211c-1.549487 0-2.3242187.453446-2.3242187 1.360351 0 .396486.13216.706379.3964844.929687.2643242.223308.603839.334961 1.0185546.334961zm8.114258.0683594c.451174 0 .845376-.1367174 1.182617-.4101563.3372414-.273439.5240885-.615233.560547-1.025391h1.196289c-.0227865.42383-.1686184.827146-.4375 1.209961-.2688815.382814-.6277646.68815-1.07666.916015-.4488955.227865-.9239885.341797-1.425293.341797-1.0071665 0-1.8081025-.336097-2.402832-1.008301-.5947296-.672204-.89209-1.591629-.89209-2.758301v-.211914c0-.720056.1321602-1.360349.3964845-1.920899.2643242-.56055.643715-.995767 1.1381835-1.305664.4944687-.309898 1.0789355-.464844 1.753418-.464844.8294312 0 1.5187147.24837 2.067871.745117.5491565.496747.8419596 1.141598.878418 1.93457h-1.196289c-.0364585-.478518-.217609-.871581-.543457-1.179199-.325848-.307619-.728025-.461426-1.206543-.461426-.6425813 0-1.1404605.23128-1.4936523.693847-.353192.462567-.529786 1.131343-.529786 2.006347v.239258c0 .852217.175454 1.508461.526367 1.96875.350913.460288.85221.690429 1.503906.690429zm5.6259765-5.6054688c.5605497-.6881544 1.289709-1.0322265 2.1875-1.0322265 1.563159 0 2.3515625.881827 2.3652344 2.645507V249h-1.264648v-4.8945312c-.004557-.5332058-.126463-.9274076-.365722-1.1826172-.239259-.2552096-.611814-.3828125-1.117675-.3828125-.410158 0-.77018.109374-1.080078.328125-.309897.218752-.551431.505858-.724609.861329V249h-1.264648v-10.5h1.264649v3.9990234zM357.7260742 249h-1.2646484v-7.3964844h1.2646484V249zm-1.3671875-9.3583984c0-.2050792.0626622-.3782545.1879883-.5195313.125326-.1412767.311034-.211914.557129-.211914s.432942.0706373.5605468.211914c.1276048.1412768.1914062.314452.1914062.5195313 0 .205079-.0638014.3759758-.1914062.5126953-.1276048.136719-.314452.205078-.560547.205078s-.4318027-.068359-.5571288-.205078c-.125326-.13672-.1879883-.307617-.1879883-.512696zm4.586914 1.961914l.0410157.9296875c.565107-.710941 1.303381-1.066406 2.2148438-1.066406 1.5631588 0 2.3515624.881827 2.3652343 2.645508V249h-1.2646484v-4.8945312c-.004557-.5332058-.126463-.9274076-.365722-1.1826172-.239259-.2552096-.611814-.3828125-1.117675-.3828125-.410158 0-.770181.109374-1.080078.328125-.309897.218752-.551431.505858-.724609.861329V249h-1.264648v-7.3964844h1.196289zm6.227539 3.6367188c0-1.1530006.266599-2.0701464.7998048-2.751465.5332058-.6813184 1.239579-1.0219725 2.1191407-1.0219725.9023482 0 1.6064427.319007 2.1123046.957031l.0615235-.820313h1.1552734v7.21875c0 .957036-.2836886 1.71126-.8510742 2.262695-.5673856.551435-1.329585.827148-2.286621.827148-.533206 0-1.0550106-.113931-1.5654298-.341797-.5104192-.227866-.9000637-.540037-1.1689453-.936524l.65625-.758789c.5423204.669925 1.2053997 1.004882 1.9892578 1.004882.6152375 0 1.0948876-.173176 1.438965-.519531.344077-.346356.516113-.833982.516113-1.462891v-.635742c-.5058618.583336-1.1962845.875-2.071289.875-.8658897 0-1.5665663-.34863-2.1020507-1.045899-.5354844-.697269-.8032227-1.647455-.8032227-2.850586zm1.2714845.1435547c0 .833989.1708967 1.489093.5126953 1.965332.3417986.47624.8203095.714356 1.435547.714356.79753 0 1.383136-.362301 1.7568358-1.086914v-3.376953c-.3873717-.706383-.9684206-1.05957-1.743164-1.05957-.6152375 0-1.096027.239256-1.4423828.717774-.346356.478518-.5195313 1.18717-.5195313 2.125977z"/>
    <path fill="#D950D6" fill-opacity=".2" d="M154 230h78c1.6568542 0 3 1.3431457 3 3v26c0 1.6568542-1.3431458 3-3 3h-78c-1.6568543 0-3-1.3431458-3-3v-26c0-1.6568543 1.3431457-3 3-3z"/>
    <path fill="#262626" d="M187.262207 246.4023438h-4.1699218L182.1557617 249h-1.3535156l3.800782-9.953125h1.148438L189.559082 249h-1.3466797l-.9501953-2.5976562zm-3.7734375-1.0800782h3.383789l-1.6953124-4.6552734-1.688476 4.6552734zm14.7314453.5195313c-.1230474 1.052739-.5115527 1.865068-1.1655273 2.437011-.6539746.571943-1.5232693.85791-2.6079102.85791-1.175787 0-2.1179977-.421546-2.82666-1.264649-.7086625-.843103-1.0629884-1.971022-1.0629884-3.383789v-.957032c0-.925135.1652-1.738604.495605-2.44043.330405-.701827.798662-1.240721 1.404785-1.6167.606123-.375979 1.307939-.563965 2.105469-.563965 1.057297 0 1.904944.295081 2.542968.885254.638024.590172 1.009439 1.407058 1.114257 2.450683h-1.319336c-.113933-.792973-.361164-1.367186-.741699-1.722656-.380536-.355471-.912595-.533203-1.596192-.533203-.838546 0-1.495929.309892-1.972168.929687-.47624.619795-.714356 1.501622-.714356 2.645508v.963867c0 1.080083.225583 1.939124.676758 2.577148.451174.638024 1.082352.957031 1.893554.957031.72917 0 1.288572-.1652 1.678222-.495606.38965-.330405.648274-.905758.775879-1.726074h1.319336zm3.1103516 2.08496h4.716797V249h-6.036133v-9.953125h1.319336v8.8798828z"/>
    <path fill="#7977E7" fill-opacity=".2" d="M314 194h70c1.6568542 0 3 1.3431457 3 3v26c0 1.6568542-1.3431458 3-3 3h-70c-1.6568543 0-3-1.3431458-3-3v-26c0-1.6568543 1.3431457-3 3-3z"/>
    <path fill="#262626" d="M328.0375977 208.5634766c-1.1256567-.3235694-1.9448217-.721189-2.4575196-1.192871-.512697-.4716822-.769042-1.0538704-.769042-1.7465822 0-.783858.313311-1.4321263.939942-1.9448242.626631-.512698 1.441239-.769043 2.443848-.769043.683597 0 1.293129.1321602 1.828614.3964844.535485.2643243.950194.628904 1.244141 1.09375.293947.464846.440918.972979.440918 1.524414h-1.319336c0-.6015654-.191404-1.0743797-.574218-1.418457-.382814-.3440772-.922848-.5161132-1.620117-.5161132-.647138 0-1.151853.142414-1.51416.427246-.362306.2848322-.543457.6801733-.543457 1.1860352 0 .405601.172036.7485338.516114 1.0288086.344077.280275.929683.53662 1.756836.769043.827152.232423 1.474281.488768 1.941406.769043.467125.2802748.813475.6072572 1.039062.980957.225587.3736998.338379.813474.338379 1.319336 0 .8066446-.31445 1.4526342-.943359 1.9379882-.628909.485354-1.469721.7280274-2.522461.7280274-.683597 0-1.321611-.131021-1.914062-.3930665-.592451-.2620455-1.049315-.6209287-1.370606-1.07666-.321291-.4557316-.481934-.972979-.481934-1.551758h1.319336c0 .6015656.222166 1.0766585.666504 1.425293.444338.3486346 1.03792.5229493 1.780762.5229493.692712 0 1.223631-.1412747 1.592773-.4238282.369143-.2825535.553711-.6676408.553711-1.1552734 0-.4876326-.1708962-.8647448-.512695-1.1313477-.341799-.266603-.961584-.5297838-1.859375-.7895507zm8.2441406 4.5732422c-1.0026092 0-1.8183562-.329261-2.4472656-.987793-.6289094-.658532-.9433594-1.5392198-.9433594-2.64209v-.2324217c0-.733727.1401353-1.388831.42041-1.965332.280275-.5765.672198-1.027667 1.1757814-1.353515.5035832-.325848 1.0493135-.488769 1.637207-.488769.9615934 0 1.7089817.316729 2.2421875.950196s.7998047 1.540359.7998047 2.720703v.526368h-5.010743c.018229.729171.23128 1.318195.63916 1.76709.407879.448896.926266.67334 1.555175.67334.446617 0 .824868-.091145 1.134765-.273437s.581053-.423826.813476-.724609l.772461.601563c-.619795.952479-1.549473 1.428711-2.789063 1.428711zm-.1572266-6.6308594c-.5104192 0-.9388003.1857078-1.2851562.557129-.346356.371421-.5605465.8920864-.6425782 1.5620116h3.7050782v-.095703c-.0364585-.6425815-.209634-1.1404606-.5195313-1.4936525-.3098974-.3531918-.729164-.529785-1.2578125-.529785zm7.4716797 5.5986328c.451174 0 .845376-.1367174 1.1826172-.4101563.3372413-.273439.5240884-.615233.560547-1.025391h1.196289c-.0227866.42383-.1686185.827146-.4375 1.209961-.2688816.382814-.6277648.68815-1.0766602.916015-.4488955.227865-.9239884.341797-1.425293.341797-1.0071665 0-1.8081025-.336097-2.402832-1.008301-.5947296-.672204-.89209-1.591629-.89209-2.758301v-.211914c0-.720056.1321603-1.360349.3964845-1.920899.264324-.56055.643715-.995767 1.138183-1.305664.494468-.309898 1.078935-.464844 1.753418-.464844.829431 0 1.518714.24837 2.067871.745117.549156.496747.841959 1.141598.878418 1.93457h-1.196289c-.036459-.478518-.217609-.871581-.543457-1.179199-.325848-.307619-.728025-.461426-1.206543-.461426-.642582 0-1.140461.23128-1.493653.693847-.353192.462567-.529785 1.131343-.529785 2.006347v.239258c0 .852217.175454 1.508461.526367 1.96875.350913.460288.85221.690429 1.503906.690429zm8.9277344.1640625c-.49219.578779-1.2145135.868164-2.1669922.868164-.7884154 0-1.3888326-.2290016-1.8012695-.6870117-.412437-.45801-.620931-1.1359004-.625488-2.0336914v-4.8125h1.264649v4.7783203c0 1.121099.455725 1.68164 1.367188 1.68164.966151 0 1.608723-.360023 1.927735-1.080078v-5.379883h1.264649V213h-1.203125l-.027343-.7314453zm6.7265625-5.5302735c-.1914072-.0319012-.398762-.0478515-.6220703-.0478515-.8294313 0-1.3922512.3531866-1.6884766 1.0595703V213h-1.2646484v-7.3964844h1.2304687l.0205078.8544922c.4147156-.6608106 1.0026004-.991211 1.763672-.991211.246095 0 .432942.0319008.5605468.0957032v1.1757812zM361.786621 213h-1.2646483v-7.3964844h1.2646484V213zm-1.3671874-9.3583984c0-.2050792.062662-.3782545.1879883-.5195313.125326-.1412767.311033-.211914.557128-.211914s.432942.0706373.560547.211914c.127604.1412768.191406.314452.191406.5195313 0 .205079-.063802.3759758-.191406.5126953-.127605.136719-.314452.205078-.560547.205078s-.431803-.068359-.557129-.205078c-.125326-.13672-.187988-.307617-.187988-.512696zm5.1064453.1708984v1.7910156h1.380859v.977539h-1.38086v4.5869142c0 .2962254.061522.518391.18457.666504.123047.1481126.33268.2221678.628906.2221678.145834 0 .346353-.0273435.601562-.0820312V213c-.332684.0911463-.656249.1367188-.970703.1367188-.565107 0-.99121-.1708968-1.278321-.5126954-.287111-.3417985-.430664-.8271453-.430664-1.4560546v-4.586914h-1.346679v-.9775392h1.346679V203.8125h1.264648zm5.277343 7.334961l1.722656-5.5439454h1.353515l-2.973633 8.538086c-.460289 1.230475-1.191727 1.845703-2.194336 1.845703l-.239258-.0205077-.47168-.088868v-1.025391l.341797.027343c.428387 0 .762205-.086588 1.001464-.259766s.43636-.489907.591308-.950196l.280273-.751954-2.638672-7.314453h1.380859l1.845703 5.543945z"/>
    <path fill="#1B9EF6" fill-opacity=".2" d="M154 194h78c1.6568542 0 3 1.3431457 3 3v26c0 1.6568542-1.3431458 3-3 3h-78c-1.6568543 0-3-1.3431458-3-3v-26c0-1.6568543 1.3431457-3 3-3z"/>
    <path fill="#262626" d="M170.873047 211.9267578h4.7167968V213h-6.036133v-9.953125h1.319336v8.8798828zm5.680664-2.6933594c0-.724613.142414-1.3762992.427246-1.955078.2848322-.578779.6813126-1.025389 1.1894532-1.3398438.5081405-.3144547 1.08805-.4716797 1.739746-.4716797 1.0071665 0 1.8217743.348629 2.4438477 1.045898.622073.697269.933105 1.624668.933105 2.782226v.088867c0 .720055-.137857 1.366045-.413574 1.937988-.275718.571943-.66992 1.017414-1.182617 1.336426-.512698.319012-1.101722.478515-1.76709.478515-1.002609 0-1.814939-.34863-2.437012-1.045899-.622074-.697269-.933106-1.620112-.933106-2.768555v-.088867zm1.2714843.1503907c0 .820317.190265 1.478839.5708008 1.975586.380536.496748.889808.745118 1.527832.745118.642582 0 1.152993-.251788 1.53125-.755371.378258-.503583.567383-1.208817.567383-2.115723 0-.811202-.192543-1.468584-.577636-1.972168-.385093-.503583-.896644-.755371-1.534668-.755371-.624352 0-1.127927.24837-1.510742.745117-.382814.496747-.574219 1.207678-.574219 2.132813zm6.7470703-.143554c0-1.153.266599-2.070146.7998047-2.751465.5332058-.681318 1.239579-1.021972 2.1191406-1.021972.902348 0 1.606442.319007 2.112304.957031l.061523-.820312h1.155273v7.21875c0 .957036-.283689 1.711261-.851074 2.262696-.567386.551435-1.329585.827149-2.286621.827149-.533206 0-1.055011-.113931-1.56543-.341797-.510419-.227865-.900064-.540037-1.168946-.936523l.65625-.758789c.54232.669925 1.205399 1.004883 1.989258 1.004883.615237 0 1.094887-.173175 1.438964-.519531.344077-.346356.516113-.833981.516113-1.462891v-.635742c-.505862.583336-1.196285.875-2.071289.875-.86589 0-1.566567-.348629-2.102051-1.045898-.535485-.697269-.803223-1.647455-.803223-2.850586zm1.2714844.143555c0 .833989.1708967 1.489093.5126953 1.965332.3417986.47624.8203094.714356 1.435547.714356.79753 0 1.383136-.362301 1.7568358-1.086914v-3.376954c-.387371-.706383-.96842-1.05957-1.743164-1.05957-.615237 0-1.096027.239256-1.442382.717774-.346356.478518-.519531 1.18717-.519531 2.125977zm6.5830078-.143554c0-1.153.266599-2.070146.7998047-2.751465.5332058-.681318 1.239579-1.021972 2.1191406-1.021972.902349 0 1.606443.319007 2.112305.957031l.061524-.820312h1.155274v7.21875c0 .957036-.283688 1.711261-.851074 2.262696-.567385.551435-1.329585.827149-2.286621.827149-.533206 0-1.05501-.113931-1.565429-.341797-.510419-.227865-.900064-.540037-1.168945-.936523l.65625-.758789c.542321.669926 1.2054 1.004883 1.989258 1.004883.615238 0 1.094888-.173175 1.438965-.519531.344078-.346356.516114-.833981.516114-1.46289v-.635742c-.505862.583337-1.196285.875-2.071289.875-.86589 0-1.566566-.348629-2.102051-1.045898-.535484-.697269-.803222-1.647455-.803222-2.850586zm1.2714844.143555c0 .833989.1708967 1.489093.5126953 1.965332.3417986.47624.8203094.714356 1.435547.714356.79753 0 1.383136-.362301 1.7568358-1.086914v-3.376954c-.3873717-.706383-.9684206-1.05957-1.743164-1.05957-.6152375 0-1.096027.239256-1.442383.717774-.3463558.478518-.519531 1.18717-.519531 2.125977zM201.9560547 213h-1.2646485v-7.3964844h1.2646485V213zm-1.3671875-9.3583984c0-.2050792.062662-.3782545.1879883-.5195313.125326-.1412767.311034-.211914.557129-.211914s.432942.0706373.5605467.211914c.127605.1412768.1914063.314452.1914063.5195313 0 .205079-.0638014.3759758-.1914063.5126953-.1276048.136719-.3144518.205078-.5605468.205078s-.4318028-.068359-.557129-.205078c-.125326-.13672-.1879882-.307617-.1879882-.512696zm4.586914 1.961914l.0410157.9296875c.565107-.710941 1.30338-1.066406 2.214843-1.066406 1.563159 0 2.351562.881827 2.365234 2.645508V213h-1.264649v-4.8945312c-.004558-.5332058-.126464-.9274076-.365723-1.1826172-.239259-.2552096-.611814-.3828125-1.117676-.3828125-.410158 0-.770181.109374-1.080078.328125-.309898.218752-.551432.505858-.72461.861329V213h-1.264648v-7.3964844h1.196289zm6.227539 3.6367188c0-1.1530006.266599-2.0701464.7998048-2.751465.5332058-.6813184 1.239579-1.0219725 2.1191406-1.0219725.9023483 0 1.6064428.319007 2.1123047.957031l.0615235-.820313h1.1552734v7.21875c0 .957036-.2836886 1.71126-.8510742 2.262695-.5673857.551435-1.329585.827148-2.286621.827148-.533206 0-1.0550106-.113931-1.5654298-.341797-.5104192-.227866-.9000638-.540037-1.1689453-.936524l.65625-.758789c.54232.669925 1.205399 1.004882 1.989257 1.004882.615237 0 1.094887-.173176 1.438965-.519531.344077-.346356.516113-.833982.516113-1.462891v-.635742c-.505862.583336-1.196285.875-2.071289.875-.86589 0-1.566567-.34863-2.102051-1.045899-.535485-.697269-.803223-1.647455-.803223-2.850586zm1.2714845.1435547c0 .833989.1708967 1.489093.5126953 1.965332.3417986.47624.8203094.714356 1.435547.714356.79753 0 1.383136-.362301 1.7568358-1.086914v-3.376953c-.3873717-.706383-.9684206-1.05957-1.743164-1.05957-.6152375 0-1.096027.239256-1.442383.717774-.3463558.478518-.519531 1.18717-.519531 2.125977z"/>
    <path fill="#1ABD43" fill-opacity=".2" d="M274 158h110c1.656854 0 3 1.3431457 3 3v26c0 1.6568542-1.343146 3-3 3H274c-1.6568543 0-3-1.3431458-3-3v-26c0-1.6568543 1.3431457-3 3-3z"/>
    <path fill="#262626" d="M299.050293 167.046875l3.2539062 8.1210938 3.2539063-8.1210938h1.7021484V177h-1.3125v-3.8759766l.123046-4.1835937L302.803222 177h-1.004883l-3.260742-8.0390625.129883 4.163086V177h-1.3125v-9.953125h1.6953128zm9.9941406 6.1865234c0-.724613.142414-1.3762992.427246-1.955078.2848322-.578779.6813127-1.025389 1.1894532-1.3398438.5081406-.3144547 1.08805-.4716797 1.739746-.4716797 1.0071666 0 1.8217743.348629 2.4438478 1.045898.6220734.697269.9331054 1.624668.9331054 2.782226v.088867c0 .720055-.1378567 1.366045-.4135742 1.937988-.2757175.571943-.6699193 1.017414-1.1826172 1.336426-.512698.319012-1.101722.478515-1.7670898.478515-1.0026092 0-1.8149383-.34863-2.4370117-1.045899-.622073-.697269-.933105-1.620112-.933105-2.768555v-.088867zm1.2714844.1503907c0 .820317.190265 1.478839.5708008 1.975586.3805357.496748.889808.745118 1.527832.745118.6425813 0 1.152993-.251788 1.53125-.755371.378257-.503583.5673828-1.208817.5673828-2.115723 0-.811202-.1925437-1.468584-.5776367-1.972168-.385094-.503583-.896644-.755371-1.534668-.755371-.624353 0-1.127928.24837-1.510743.745117-.382815.496747-.574219 1.207678-.574219 2.132813zm8.2441406-3.780273l.0410156.929688c.565107-.710941 1.303381-1.066406 2.2148438-1.066406 1.5631588 0 2.3515624.881827 2.3652343 2.645508V177h-1.2646484v-4.8945312c-.004558-.5332058-.126464-.9274076-.365723-1.1826172-.239259-.2552096-.611814-.3828125-1.117676-.3828125-.410159 0-.770181.109374-1.080078.328125-.309898.218752-.551432.505858-.72461.861329V177h-1.264649v-7.3964844h1.196289zM326.4624023 177h-1.2646484v-7.3964844h1.264648V177zm-1.3671875-9.3583984c0-.2050792.0626622-.3782545.1879883-.5195313.125327-.1412767.311034-.211914.557129-.211914s.432942.0706373.560547.211914c.127605.1412768.191407.314452.191407.5195313 0 .205079-.063801.3759758-.191406.5126953-.127605.136719-.314452.205078-.560547.205078s-.431802-.068359-.557129-.205078c-.125326-.13672-.187988-.307617-.187988-.512696zm5.1064454.1708984v1.7910156h1.3808593v.977539h-1.3808593v4.5869142c0 .2962254.0615228.518391.1845703.666504.1230475.1481126.3326808.2221678.6289062.2221678.145834 0 .346353-.0273435.6015625-.0820312V177c-.332684.0911463-.6562484.1367188-.970703.1367188-.565107 0-.9912096-.1708968-1.2783204-.5126954-.2871108-.3417985-.430664-.8271453-.430664-1.4560546v-4.586914h-1.3466798v-.9775392h1.3466797V167.8125h1.2646485zm2.522461 5.4208984c0-.724613.1424138-1.3762992.427246-1.955078.284832-.578779.6813126-1.025389 1.189453-1.3398438.5081407-.3144547 1.0880502-.4716797 1.7397462-.4716797 1.0071665 0 1.8217742.348629 2.4438477 1.045898.622074.697269.933106 1.624668.933106 2.782226v.088867c0 .720055-.137856 1.366045-.413574 1.937988-.275717.571943-.669919 1.017414-1.182617 1.336426-.512698.319012-1.101722.478515-1.767089.478515-1.002609 0-1.814938-.34863-2.437011-1.045899-.622073-.697269-.933105-1.620112-.933105-2.768555v-.088867zm1.2714843.1503907c0 .820317.190265 1.478839.5708007 1.975586.3805358.496748.889808.745118 1.527832.745118.6425814 0 1.152993-.251788 1.53125-.755371.3782572-.503583.567383-1.208817.567383-2.115723 0-.811202-.1925438-1.468584-.5776368-1.972168-.385093-.503583-.896644-.755371-1.534668-.755371-.624352 0-1.1279278.24837-1.5107422.745117-.3828144.496747-.5742187 1.207678-.5742187 2.132813zm10.6230468-2.645507c-.1914072-.031901-.398762-.047851-.6220703-.047851-.8294312 0-1.392251.353187-1.6884765 1.059571V177h-1.2646485v-7.3964844h1.2304688l.0205078.8544922c.4147156-.6608106 1.0026004-.991211 1.763672-.991211.2460948 0 .432942.0319008.5605467.0957032v1.1757812zM347.1547853 177h-1.2646486v-7.3964844h1.2646485V177zm-1.3671876-9.3583984c0-.2050792.062662-.3782545.1879882-.5195313.125326-.1412767.311034-.211914.557128-.211914.246095 0 .432942.0706373.560547.211914.127604.1412768.191406.314452.191406.5195313 0 .205079-.063802.3759758-.191407.5126953-.127605.136719-.314452.205078-.560547.205078s-.431803-.068359-.557129-.205078c-.125327-.13672-.187989-.307617-.187989-.512696zm4.586914 1.961914l.0410156.9296875c.565107-.710941 1.303381-1.066406 2.2148438-1.066406 1.563159 0 2.351563.881827 2.365235 2.645508V177h-1.264648v-4.8945312c-.004557-.5332058-.126463-.9274076-.365722-1.1826172-.239259-.2552096-.611814-.3828125-1.117676-.3828125-.410158 0-.77018.109374-1.080078.328125-.309897.218752-.551431.505858-.724609.861329V177h-1.264648v-7.3964844h1.196289zm6.227539 3.6367188c0-1.1530006.266599-2.0701464.7998048-2.751465.5332058-.6813184 1.239579-1.0219725 2.1191406-1.0219725.902349 0 1.606443.319007 2.112305.957031l.061524-.820313h1.155274v7.21875c0 .957036-.283688 1.71126-.851074 2.262695-.567385.551435-1.329585.827148-2.286621.827148-.533206 0-1.05501-.113931-1.565429-.341797s-.900064-.540037-1.168945-.936524l.65625-.758789c.542321.669925 1.2054 1.004882 1.989258 1.004882.615238 0 1.094888-.173176 1.438965-.519531.344078-.346356.516114-.833982.516114-1.462891v-.635742c-.505862.583336-1.196285.875-2.071289.875-.86589 0-1.566566-.34863-2.102051-1.045899-.535484-.697269-.803222-1.647455-.803222-2.850586zm1.2714845.1435547c0 .833989.1708967 1.489093.5126953 1.965332.3417986.47624.8203094.714356 1.4355468.714356.79753 0 1.3831362-.362301 1.756836-1.086914v-3.376953c-.3873717-.706383-.9684206-1.05957-1.743164-1.05957-.6152375 0-1.096027.239256-1.442383.717774-.3463558.478518-.519531 1.18717-.519531 2.125977z"/>
    <path fill="#FC8622" fill-opacity=".2" d="M154 158h110c1.656854 0 3 1.3431457 3 3v26c0 1.6568542-1.343146 3-3 3H154c-1.6568543 0-3-1.3431458-3-3v-26c0-1.6568543 1.3431457-3 3-3z"/>
    <path fill="#262626" d="M171.2163086 174.4023438h-4.169922L166.1098634 177h-1.3535156l3.8007812-9.953125h1.1484374L173.5131836 177h-1.3466797l-.950196-2.5976562zm-3.7734375-1.0800782h3.38379l-1.695312-4.6552734-1.688476 4.6552734zm11.778321 2.946289c-.49219.578779-1.214513.8681642-2.166992.8681642-.788415 0-1.388832-.2290017-1.801269-.6870118-.412437-.45801-.620931-1.1359004-.625488-2.0336914v-4.8125h1.264649v4.7783203c0 1.121099.455725 1.68164 1.367188 1.68164.966151 0 1.608723-.360023 1.927735-1.080078v-5.379883h1.264649V177h-1.203125l-.027343-.7314453zm4.867188-8.4560546v1.7910156h1.38086v.977539h-1.38086v4.5869142c0 .2962254.061523.518391.18457.666504.123048.1481126.332681.2221678.628907.2221678.145834 0 .346353-.0273435.601563-.0820312V177c-.332684.0911463-.656248.1367188-.970703.1367188-.565107 0-.991209-.1708968-1.27832-.5126954-.287111-.3417985-.430664-.8271453-.430664-1.4560546v-4.586914h-1.346679v-.9775392h1.34668V167.8125h1.264649zm4.122071 2.6865234c.56055-.6881544 1.289709-1.0322265 2.1875-1.0322265 1.563159 0 2.351563.881827 2.365235 2.645507V177h-1.264648v-4.8945312c-.004557-.5332058-.126464-.9274076-.365723-1.1826172-.239259-.2552096-.611814-.3828125-1.117676-.3828125-.410158 0-.77018.109374-1.080078.328125-.309897.218752-.551431.505858-.724609.861329V177h-1.264648v-10.5h1.264649v3.9990234zm9.515625 6.6376954c-1.002609 0-1.818356-.329261-2.447265-.987793s-.943359-1.5392198-.943359-2.64209v-.2324217c0-.733727.140135-1.388831.42041-1.965332.280275-.5765.672198-1.027667 1.175781-1.353515.503583-.325848 1.049314-.488769 1.637207-.488769.961594 0 1.708982.316729 2.242188.950196s.799805 1.540359.799805 2.720703v.526368H195.6001c.018229.729171.2312803 1.318195.63916 1.76709.4078796.448896.9262663.67334 1.5551757.67334.446617 0 .8248684-.091145 1.1347658-.273437s.5810537-.423826.8134768-.724609l.772461.601563c-.619795.952479-1.549473 1.428711-2.7890626 1.428711zm-.157226-6.6308594c-.510419 0-.9388.1857078-1.285156.557129-.346356.371421-.560546.8920864-.642578 1.5620116h3.705078v-.095703c-.036458-.6425815-.209634-1.1404606-.519531-1.4936525-.309897-.3531918-.729164-.529785-1.257812-.529785zm5.701172-.9023438l.041016.9296875c.565107-.710941 1.303381-1.066406 2.214844-1.066406 1.563159 0 2.351563.881827 2.365235 2.645508V177h-1.264649v-4.8945312c-.004557-.5332058-.126464-.9274076-.365723-1.1826172-.239259-.2552096-.611814-.3828125-1.117675-.3828125-.410158 0-.770181.109374-1.080078.328125-.309897.218752-.551431.505858-.724609.861329V177h-1.264648v-7.3964844h1.196289zm8.244141-1.7910156v1.7910156h1.38086v.977539h-1.380859v4.5869142c0 .2962254.061523.518391.18457.666504.123047.1481126.332681.2221678.628906.2221678.145834 0 .346353-.0273435.601563-.0820312V177c-.332684.0911463-.656248.1367188-.970703.1367188-.565107 0-.991209-.1708968-1.27832-.5126954-.287111-.3417985-.430664-.8271453-.430664-1.4560546v-4.586914h-1.34668v-.9775392h1.34668V167.8125h1.264649zM215.745606 177h-1.2646486v-7.3964844h1.2646486V177zm-1.3671876-9.3583984c0-.2050792.062662-.3782545.1879883-.5195313.1253262-.1412767.311034-.211914.557129-.211914s.432942.0706373.5605468.211914c.127605.1412768.1914064.314452.1914064.5195313 0 .205079-.063802.3759758-.191407.5126953-.127605.136719-.314452.205078-.560547.205078s-.431803-.068359-.557129-.205078c-.125326-.13672-.187989-.307617-.187989-.512696zm6.357422 8.4628906c.451174 0 .845376-.1367174 1.182617-.4101563.3372414-.273439.5240885-.615233.560547-1.025391h1.196289c-.0227865.42383-.1686184.827146-.4375 1.209961-.2688815.382814-.6277646.68815-1.07666.916015-.4488956.227865-.9239885.341797-1.425293.341797-1.0071666 0-1.8081026-.336097-2.402832-1.008301-.5947296-.672204-.89209-1.591629-.89209-2.758301v-.211914c0-.720056.13216-1.360349.3964844-1.920899.2643243-.56055.643715-.995767 1.1381836-1.305664.4944683-.309898 1.078935-.464844 1.753418-.464844.829431 0 1.5187143.24837 2.067871.745117.549156.496747.8419592 1.141598.878418 1.93457h-1.196289c-.036459-.478518-.217609-.871581-.543457-1.179199-.325848-.307619-.728025-.461426-1.206543-.461426-.6425817 0-1.140461.23128-1.4936527.693847-.353192.462567-.5297852 1.131343-.5297852 2.006347v.239258c0 .852217.175454 1.508461.5263674 1.96875.350913.460288.85221.690429 1.503906.690429zM229.663574 177c-.072917-.145834-.1321612-.405597-.1777344-.779297-.5878935.6106803-1.2897094.9160158-2.1054687.9160158-.72917 0-1.327309-.2062154-1.794433-.6186524-.467125-.412437-.700684-.935381-.700684-1.5688476 0-.7701862.292803-1.3683247.878418-1.7944336.585615-.426109 1.409337-.6391602 2.471191-.6391602h1.230468v-.5810547c0-.4420595-.13216-.7941068-.396484-1.0561523-.264324-.2620456-.653969-.3930664-1.168946-.3930664-.451174 0-.829426.113931-1.134766.3417968-.30534.2278658-.458008.503579-.458008.8271485h-1.271485c0-.369143.131021-.725747.393066-1.069825.262045-.344078.617511-.616373 1.066406-.816895.448895-.200522.942217-.300781 1.47998-.300781.852218 0 1.519854.213051 2.002929.63916.483075.426109.733724 1.012854.751953 1.760254v3.404296c0 .67904.086587 1.219073.259765 1.620117V177h-1.326172zm-2.0986328-.9638672c.3964864 0 .7724592-.102538 1.1279297-.3076172.355471-.205079.612955-.471678.772461-.7998047v-1.517579h-.991211c-1.549487 0-2.324219.453446-2.324219 1.360351 0 .396486.13216.706379.396484.929687.264324.223308.603839.334961 1.018554.334961zm6.8632813-8.2236328v1.7910156h1.3808593v.977539h-1.3808593v4.5869142c0 .2962254.0615228.518391.1845703.666504.1230475.1481126.3326808.2221678.6289062.2221678.145834 0 .346353-.0273435.6015625-.0820312V177c-.332684.0911463-.6562484.1367188-.970703.1367188-.565107 0-.9912096-.1708968-1.2783204-.5126954-.28711-.3417985-.430664-.8271453-.430664-1.4560546v-4.586914h-1.346679v-.9775392h1.34668V167.8125h1.264649zM238.659668 177h-1.2646485v-7.3964844h1.2646485V177zm-1.3671875-9.3583984c0-.2050792.062662-.3782545.1879883-.5195313.125326-.1412767.311034-.211914.557129-.211914.2460948 0 .432942.0706373.5605467.211914.1276048.1412768.1914063.314452.1914063.5195313 0 .205079-.0638015.3759758-.1914063.5126953-.1276048.136719-.314452.205078-.5605468.205078-.246095 0-.4318028-.068359-.557129-.205078-.125326-.13672-.1879882-.307617-.1879882-.512696zm3.055664 5.5917968c0-.724613.142414-1.3762992.427246-1.955078.2848323-.578779.6813127-1.025389 1.1894533-1.3398438.5081405-.3144547 1.08805-.4716797 1.739746-.4716797 1.0071665 0 1.8217743.348629 2.4438477 1.045898.6220734.697269.9331055 1.624668.9331055 2.782226v.088867c0 .720055-.1378567 1.366045-.4135742 1.937988-.2757176.571943-.6699194 1.017414-1.1826172 1.336426-.512698.319012-1.101722.478515-1.76709.478515-1.002609 0-1.8149382-.34863-2.4370116-1.045899-.6220734-.697269-.9331055-1.620112-.9331055-2.768555v-.088867zm1.2714844.1503907c0 .820317.190265 1.478839.5708 1.975586.380535.496748.889808.745118 1.527832.745118.642581 0 1.152993-.251788 1.53125-.755371.378257-.503583.567383-1.208817.567383-2.115723 0-.811202-.192544-1.468584-.577637-1.972168-.385093-.503583-.896644-.755371-1.534668-.755371-.624352 0-1.127928.24837-1.510742.745117-.382815.496747-.574219 1.207678-.574219 2.132813zm8.24414-3.780273l.041015.929688c.565107-.710941 1.303381-1.066406 2.214844-1.066406 1.563159 0 2.351562.881827 2.365234 2.645508V177h-1.264648v-4.8945312c-.004557-.5332058-.126464-.9274076-.365723-1.1826172-.239259-.2552096-.611814-.3828125-1.117676-.3828125-.410158 0-.770181.109374-1.080078.328125-.309898.218752-.551432.505858-.72461.861329V177h-1.264648v-7.3964844h1.196289z"/>
    <path fill="#003459" d="M242 194h62c1.6568542 0 3 1.3431457 3 3v62c0 1.6568542-1.3431458 3-3 3h-62c-1.6568543 0-3-1.3431458-3-3v-62c0-1.6568543 1.3431457-3 3-3z"/>
    <path fill="#FFF" d="M264.7397473 241.4173315h8.7461734l4.5411035 5.6560243-.7809795 1.9263785H265.946635l.2771504-1.9263785-2.6639193-4.162306 1.179882-1.4937183zm6.1789025-25.3301496l4.7474167-.007086L297 241.324954l-1.657589 7.6749574h-9.1433042l.5689108-2.162415-19.9353427-23.5957006 4.085974-7.154614zM279.388691 206l9.872484 7.814454-1.2635575 1.3139228L289.70922 217.5286v2.567619l-4.9218532 4.0400806-8.2777627-9.8484438h-4.819139l1.940495-3.5817354L279.388691 206zm-20.5963416 24.6458203l6.9424826-5.952731 9.2141413 10.9391727-2.6161042 4.00731h-8.496472l-5.877712 7.6098593L256.615878 249H249v-9.336957l7.098767-9.0172227h2.6935824z"/>
    <g fill="#ACB7BF">
      <path d="M413 113h1V84h-2v27H269v2h144z"/>
      <path d="M264 140l5 8 5-8h-4V84h-2v56"/>
      <path d="M125 113h-1V84h2v27h143v2H125z"/>
    </g>
    <g transform="translate(199 39)">
      <use fill="#FFF" fill-rule="evenodd" xlink:href="#h"/>
      <rect width="138" height="38" x="1" y="1" stroke="#77838C" stroke-width="2" rx="3"/>
    </g>
    <path fill="#41484D" d="M221.3228586 59.158203c-.0830082.932622-.4479948 1.658933-1.0949707 2.1789552-.646976.520022-1.500239.7800293-2.559815.7800293-1.15235 0-2.065427-.3662073-2.739258-1.0986328-.673832-.7324255-1.010742-1.7504818-1.010742-3.0541992v-.498047c0-.8251993.153807-1.549069.461426-2.1716308.307619-.6225617.749509-1.1022932 1.325683-1.439209.576175-.3369157 1.245113-.505371 2.006836-.505371 1.044927 0 1.884762.2661106 2.519531.7983398.634768.5322292 1.000976 1.271968 1.098632 2.2192383h-1.779785c-.058594-.5468778-.240477-.948485-.545655-1.204834-.305178-.256349-.736082-.3845215-1.292725-.3845215-1.34278 0-2.01416.9033113-2.01416 2.709961v.5273437c0 .9033248.163572 1.5759255.490722 2.0178223.32715.4418967.820309.6628418 1.479492.6628418.58594 0 1.030272-.119627 1.333008-.358886.302736-.239259.485839-.632321.549316-1.179199h1.772461zm3.3660017 1.4208986h4.0649414V62h-5.8447266v-8.5327148h1.779786v7.1118164zM232.039237 62h-1.772461v-8.5327148h1.772461V62zm7.562779-3.6914062h-3.676758v2.2705078h4.3066408V62h-6.0864258v-8.5327148h6.064453v1.4355468h-4.284668v1.977539h3.676758v1.4282228zM249.0690917 62h-1.772461l-3.8378905-5.822754V62h-1.7797852v-8.5327148h1.7797853l3.8378906 5.830078v-5.830078h1.77246V62zm8.7932478-7.097168h-2.8271485V62h-1.779785v-7.097168h-2.7905274v-1.4355468h7.397461v1.4355468zm1.9524274 8.0126953h-1.398926l4.196777-11.5795898h1.398926l-4.196778 11.5795898zm10.426548-3.1567382c0-.322267-.126952-.579833-.38086-.772705-.253908-.192872-.75317-.382079-1.497803-.567627-.744633-.185547-1.331785-.397948-1.761475-.637207-.42969-.239259-.745849-.518797-.948487-.838623-.202638-.319826-.303955-.704343-.303955-1.153564 0-.712894.30029-1.297605.900879-1.75415.600588-.456545 1.376948-.684814 2.329101-.684814 1.025395 0 1.848141.244138 2.468261.732422s.930175 1.123043.930175 1.904297h-1.779785c0-.39551-.146483-.706786-.439453-.933838-.29297-.227052-.686033-.340576-1.179199-.340576-.46387 0-.830077.093993-1.098633.281983s-.402832.438231-.402832.750733c0 .283205.137938.517577.413818.703125.27588.185548.762936.363769 1.461182.534668 1.079107.263673 1.853025.612791 2.321777 1.047363.468752.434573.703125.998532.703125 1.691895 0 .747074-.302731 1.333006-.908203 1.757813-.605472.424807-1.406245.637207-2.402344.637207-.673831 0-1.29028-.113524-1.849365-.340576-.559085-.227052-.99243-.548093-1.300049-.963135-.307619-.415041-.461426-.898435-.461426-1.450195h1.787109c0 .937505.624994 1.40625 1.875 1.40625.473635 0 .845946-.090331 1.116943-.270996.270997-.180665.406494-.427244.406494-.739746zm8.829869-1.450195h-3.676758v2.270508h4.30664V62h-6.086426v-8.5327148h6.064453v1.4355468h-4.284668v1.977539h3.676758v1.4282228zm5.490025.578613h-1.633301V62h-1.779785v-8.5327148h3.339843c1.064458 0 1.889645.2233864 2.475586.670166.58594.4467795.878906 1.085201.878906 1.9152832 0 1.1474666-.549311 1.943357-1.64795 2.3876953l2.006836 3.479004V62h-1.904297l-1.73584-3.112793zm-1.633301-1.420898h1.560058c.527346 0 .92285-.115965 1.186523-.3479.263673-.231935.395508-.538328.395508-.919189 0-.39551-.128173-.710448-.384522-.944824-.256349-.234376-.655515-.351562-1.19751-.351562h-1.560059v2.563476zm9.745396 2.248535l.13916.563965.131836-.549316 2.124023-6.262207h1.882324L293.713344 62h-1.8017578l-3.2299805-8.5327148h1.8823242l2.109375 6.2475586zM300.031006 62h-1.772461v-8.5327148h1.772461V62zm9.225376-2.841797c-.083008.932622-.447994 1.658933-1.09497 2.1789552-.646976.520022-1.500239.7800293-2.559815.7800293-1.152349 0-2.065426-.3662073-2.739257-1.0986328-.673832-.7324255-1.010743-1.7504818-1.010743-3.0541992v-.498047c0-.8251993.153807-1.549069.461426-2.1716308.307619-.6225617.749509-1.1022932 1.325684-1.439209.576174-.3369157 1.245113-.505371 2.006836-.505371 1.044927 0 1.884762.2661106 2.519531.7983398.634769.5322292 1.000976 1.271968 1.098633 2.2192383h-1.779785c-.058594-.5468778-.240477-.948485-.545655-1.204834-.305177-.256349-.736081-.3845215-1.292724-.3845215-1.34278 0-2.014161.9033113-2.014161 2.709961v.5273437c0 .9033248.163573 1.5759255.490723 2.0178223.32715.4418967.820309.6628418 1.479492.6628418.585941 0 1.030272-.119627 1.333008-.358886.302736-.239259.48584-.632321.549317-1.179199h1.77246zm7.04276-.8496092h-3.676758v2.2705078h4.306641V62h-6.086426v-8.5327148h6.064453v1.4355468h-4.284668v1.977539h3.676758v1.4282228zm6.85233 1.4501953c0-.322267-.126952-.579833-.38086-.772705-.253907-.192872-.75317-.382079-1.497802-.567627-.744633-.185547-1.331785-.397948-1.761475-.637207-.42969-.239259-.745849-.518797-.948486-.838623-.202638-.319826-.303955-.704343-.303955-1.153564 0-.712894.30029-1.297605.900879-1.75415.600588-.456545 1.376948-.684814 2.329101-.684814 1.025396 0 1.848142.244138 2.468262.732422.62012.488284.930176 1.123043.930176 1.904297h-1.779786c0-.39551-.146482-.706786-.439453-.933838-.29297-.227052-.686032-.340576-1.179199-.340576-.463869 0-.830077.093993-1.098633.281983s-.402832.438231-.402832.750733c0 .283205.137938.517577.413819.703125.27588.185548.762936.363769 1.461181.534668 1.079107.263673 1.853025.612791 2.321778 1.047363.468752.434573.703125.998532.703125 1.691895 0 .747074-.302732 1.333006-.908204 1.757813-.605471.424807-1.406245.637207-2.402343.637207-.673832 0-1.290281-.113524-1.849366-.340576-.559084-.227052-.99243-.548093-1.300048-.963135-.307619-.415041-.461426-.898435-.461426-1.450195h1.787109c0 .937505.624994 1.40625 1.875 1.40625.473635 0 .845946-.090331 1.116944-.270996.270997-.180665.406494-.427244.406494-.739746z"/>
  </g>
</svg>
