<svg xmlns="http://www.w3.org/2000/svg" xmlns:xlink="http://www.w3.org/1999/xlink" id="processonSvg1000" viewBox="110.0 0 884.0 528.0" width="884.0" height="528.0"><defs id="ProcessOnDefs1001"/><g id="ProcessOnG1002"><path id="ProcessOnPath1003" d="M110.0 -45.0H994.0V483.0H110.0V-45.0Z" fill="none"/><g id="ProcessOnG1004"><g id="ProcessOnG1005" transform="matrix(1.0,0.0,0.0,1.0,327.0,51.0)" opacity="1.0"><path id="ProcessOnPath1006" d="M0.0 0.0L384.0 0.0L384.0 412.0L0.0 412.0Z" stroke="#323232" stroke-width="2.0" stroke-dasharray="none" opacity="1.0" fill="#ffffff"/></g><g id="ProcessOnG1007" transform="matrix(1.0,0.0,0.0,1.0,259.0,118.0)" opacity="1.0"><path id="ProcessOnPath1008" d="M0.0 4.0Q0.0 0.0 4.0 0.0L527.0 0.0Q531.0 0.0 531.0 4.0L531.0 213.0Q531.0 217.0 527.0 217.0L4.0 217.0Q0.0 217.0 0.0 213.0Z" stroke="#dadada" stroke-width="2.0" stroke-dasharray="none" opacity="1.0" fill="#ffffff"/><path id="ProcessOnPath1009" d="M0.0 30.0L0.0 4.0Q0.0 0.0 4.0 0.0L527.0 0.0Q531.0 0.0 531.0 4.0L531.0 30.0Z" stroke="#dadada" stroke-width="2.0" stroke-dasharray="none" opacity="1.0" fill="#dadada"/><path id="ProcessOnPath1010" d="M10.0 15.0C10.0 10.0 18.0 10.0 18.0 15.0C18.0 20.0 10.0 20.0 10.0 15.0Z" stroke="none" stroke-width="0.0" stroke-dasharray="none" opacity="1.0" fill="#ffffff"/><path id="ProcessOnPath1011" d="M23.0 15.0C23.0 10.0 31.0 10.0 31.0 15.0C31.0 20.0 23.0 20.0 23.0 15.0Z" stroke="none" stroke-width="0.0" stroke-dasharray="none" opacity="1.0" fill="#ffffff"/><path id="ProcessOnPath1012" d="M36.0 15.0C36.0 10.0 44.0 10.0 44.0 15.0C44.0 20.0 36.0 20.0 36.0 15.0Z" stroke="none" stroke-width="0.0" stroke-dasharray="none" opacity="1.0" fill="#ffffff"/><path id="ProcessOnPath1013" d="M55.0 9.0Q55.0 5.0 59.0 5.0L522.0 5.0Q526.0 5.0 526.0 9.0L526.0 21.0Q526.0 25.0 522.0 25.0L59.0 25.0Q55.0 25.0 55.0 21.0Z" stroke="none" stroke-width="0.0" stroke-dasharray="none" opacity="1.0" fill="#ffffff"/><path id="ProcessOnPath1014" d="M0.0 0.0L531.0 0.0L531.0 217.0L0.0 217.0Z" stroke="none" stroke-width="0.0" stroke-dasharray="none" opacity="1.0" fill="none"/><g id="ProcessOnG1015" transform="matrix(1.0,0.0,0.0,1.0,60.0,6.875)"><text id="ProcessOnText1016" fill="#000000" font-size="13" x="229.5" y="13.325" font-family="微软雅黑" font-weight="normal" font-style="normal" text-decoration="none" family="微软雅黑" text-anchor="middle" size="13">https://lz5z.com</text></g></g><g id="ProcessOnG1017" transform="matrix(1.0,0.0,0.0,1.0,350.0,367.0)" opacity="1.0"><path id="ProcessOnPath1018" d="M0.0 0.0L95.0 0.0L95.0 47.0L0.0 47.0Z" stroke="#8a8a8a" stroke-width="2.0" stroke-dasharray="none" opacity="1.0" fill="#66ff66"/><g id="ProcessOnG1019" transform="matrix(1.0,0.0,0.0,1.0,10.0,15.375)"><text id="ProcessOnText1020" fill="#000000" font-size="13" x="36.5" y="13.325" font-family="微软雅黑" font-weight="normal" font-style="normal" text-decoration="none" family="微软雅黑" text-anchor="middle" size="13">美丽的图片</text></g></g><g id="ProcessOnG1021" transform="matrix(6.123233995736766E-17,1.0,-1.0,6.123233995736766E-17,324.0,39.5)" opacity="1.0"><path id="ProcessOnPath1022" d="M10.5 0.0L10.5 124.0" stroke="#888888" stroke-width="1.0" stroke-dasharray="none" opacity="1.0" fill="none"/><path id="ProcessOnPath1023" d="M0.0 0.0L21.0 0.0L21.0 124.0L0.0 124.0Z" stroke="none" stroke-width="0.0" stroke-dasharray="none" opacity="1.0" fill="none"/></g><g id="ProcessOnG1024" transform="matrix(6.123233995736766E-17,1.0,-1.0,6.123233995736766E-17,350.0,355.5)" opacity="1.0"><path id="ProcessOnPath1025" d="M10.5 0.0L10.5 150.0" stroke="#888888" stroke-width="1.0" stroke-dasharray="none" opacity="1.0" fill="none"/><path id="ProcessOnPath1026" d="M0.0 0.0L21.0 0.0L21.0 150.0L0.0 150.0Z" stroke="none" stroke-width="0.0" stroke-dasharray="none" opacity="1.0" fill="none"/></g><g id="ProcessOnG1027" transform="matrix(1.0,0.0,0.0,1.0,199.5,51.0)" opacity="1.0"><path id="ProcessOnPath1028" d="M10.0 0.0L20.0 10.0L13.4 10.0L13.4 306.0L20.0 306.0L10.0 316.0L0.0 306.0L6.6000000000000005 306.0L6.6000000000000005 10.0L0.0 10.0L10.0 0.0Z" stroke="#323232" stroke-width="2.0" stroke-dasharray="none" opacity="1.0" fill="#cccc00"/></g><g id="ProcessOnG1029" transform="matrix(1.0,0.0,0.0,1.0,130.0,207.0)" opacity="1.0"><path id="ProcessOnPath1030" d="M0.0 0.0L83.0 0.0L83.0 27.0L0.0 27.0Z" stroke="none" stroke-width="0.0" stroke-dasharray="none" opacity="1.0" fill="none"/><g id="ProcessOnG1031" transform="matrix(1.0,0.0,0.0,1.0,0.0,5.375)"><text id="ProcessOnText1032" fill="#000000" font-size="13" x="40.5" y="13.325" font-family="微软雅黑" font-weight="bold" font-style="normal" text-decoration="none" family="微软雅黑" text-anchor="middle" size="13">offsetTop</text></g></g><g id="ProcessOnG1033" transform="matrix(1.0,0.0,0.0,1.0,811.0,152.0)" opacity="1.0"><path id="ProcessOnPath1034" d="M10.0 0.0L20.0 10.0L13.4 10.0L13.4 173.0L20.0 173.0L10.0 183.0L0.0 173.0L6.6000000000000005 173.0L6.6000000000000005 10.0L0.0 10.0L10.0 0.0Z" stroke="#323232" stroke-width="2.0" stroke-dasharray="none" opacity="1.0" fill="#4d9900"/></g><g id="ProcessOnG1035" transform="matrix(6.123233995736766E-17,1.0,-1.0,6.123233995736766E-17,852.5,139.0)" opacity="1.0"><path id="ProcessOnPath1036" d="M10.5 0.0L10.5 63.0" stroke="#888888" stroke-width="1.0" stroke-dasharray="none" opacity="1.0" fill="none"/><path id="ProcessOnPath1037" d="M0.0 0.0L21.0 0.0L21.0 63.0L0.0 63.0Z" stroke="none" stroke-width="0.0" stroke-dasharray="none" opacity="1.0" fill="none"/></g><g id="ProcessOnG1038" transform="matrix(6.123233995736766E-17,1.0,-1.0,6.123233995736766E-17,852.5,325.0)" opacity="1.0"><path id="ProcessOnPath1039" d="M10.5 0.0L10.5 63.0" stroke="#888888" stroke-width="1.0" stroke-dasharray="none" opacity="1.0" fill="none"/><path id="ProcessOnPath1040" d="M0.0 0.0L21.0 0.0L21.0 63.0L0.0 63.0Z" stroke="none" stroke-width="0.0" stroke-dasharray="none" opacity="1.0" fill="none"/></g><g id="ProcessOnG1041" transform="matrix(1.0,0.0,0.0,1.0,833.5,229.0)" opacity="1.0"><path id="ProcessOnPath1042" d="M0.0 0.0L125.5 0.0L125.5 27.0L0.0 27.0Z" stroke="none" stroke-width="0.0" stroke-dasharray="none" opacity="1.0" fill="none"/><g id="ProcessOnG1043" transform="matrix(1.0,0.0,0.0,1.0,0.0,5.375)"><text id="ProcessOnText1044" fill="#000000" font-size="13" x="61.75" y="13.325" font-family="微软雅黑" font-weight="bold" font-style="normal" text-decoration="none" family="微软雅黑" text-anchor="middle" size="13">window.innerHeight</text></g></g><g id="ProcessOnG1045" transform="matrix(6.123233995736766E-17,1.0,-1.0,6.123233995736766E-17,858.0,39.49999999999999)" opacity="1.0"><path id="ProcessOnPath1046" d="M10.5 0.0L10.5 150.0" stroke="#888888" stroke-width="1.0" stroke-dasharray="none" opacity="1.0" fill="none"/><path id="ProcessOnPath1047" d="M0.0 0.0L21.0 0.0L21.0 150.0L0.0 150.0Z" stroke="none" stroke-width="0.0" stroke-dasharray="none" opacity="1.0" fill="none"/></g><g id="ProcessOnG1048" transform="matrix(1.0,0.0,0.0,1.0,793.5,51.0)" opacity="1.0"><path id="ProcessOnPath1049" d="M10.0 0.0L20.0 10.0L13.4 10.0L13.4 86.0L20.0 86.0L10.0 96.0L0.0 86.0L6.6000000000000005 86.0L6.6000000000000005 10.0L0.0 10.0L10.0 0.0Z" stroke="#323232" stroke-width="2.0" stroke-dasharray="none" opacity="1.0" fill="#ff0000"/></g><g id="ProcessOnG1050" transform="matrix(1.0,0.0,0.0,1.0,810.5,85.5)" opacity="1.0"><path id="ProcessOnPath1051" d="M0.0 0.0L163.5 0.0L163.5 27.0L0.0 27.0Z" stroke="none" stroke-width="0.0" stroke-dasharray="none" opacity="1.0" fill="none"/><g id="ProcessOnG1052" transform="matrix(1.0,0.0,0.0,1.0,0.0,5.375)"><text id="ProcessOnText1053" fill="#000000" font-size="13" x="80.75" y="13.325" font-family="微软雅黑" font-weight="bold" font-style="normal" text-decoration="none" family="微软雅黑" text-anchor="middle" size="13">document.body.scrollTop</text></g></g></g></g></svg>